<?xml version="1.0" encoding="UTF-8" standalone="no"?>
<svg
   xmlns:dc="http://purl.org/dc/elements/1.1/"
   xmlns:cc="http://creativecommons.org/ns#"
   xmlns:rdf="http://www.w3.org/1999/02/22-rdf-syntax-ns#"
   xmlns:svg="http://www.w3.org/2000/svg"
   xmlns="http://www.w3.org/2000/svg"
   xmlns:sodipodi="http://sodipodi.sourceforge.net/DTD/sodipodi-0.dtd"
   xmlns:inkscape="http://www.inkscape.org/namespaces/inkscape"
   width="415.73746"
   height="174.15135"
   viewBox="0 0 109.9972 46.077542"
   version="1.1"
   id="svg8"
   sodipodi:docname="cmaranica2.svg"
   inkscape:version="0.92.1 r15371">
  <sodipodi:namedview
     pagecolor="#ffffff"
     bordercolor="#666666"
     borderopacity="1"
     objecttolerance="10"
     gridtolerance="10"
     guidetolerance="10"
     inkscape:pageopacity="0"
     inkscape:pageshadow="2"
     inkscape:window-width="1346"
     inkscape:window-height="844"
     id="namedview8"
     showgrid="false"
     inkscape:zoom="4.6127034"
     inkscape:cx="361.89713"
     inkscape:cy="141.36034"
     inkscape:window-x="0"
     inkscape:window-y="0"
     inkscape:window-maximized="0"
     inkscape:current-layer="svg8" />
  <defs
     id="defs2" />
  <metadata
     id="metadata5">
    <rdf:RDF>
      <cc:Work
         rdf:about="">
        <dc:format>image/svg+xml</dc:format>
        <dc:type
           rdf:resource="http://purl.org/dc/dcmitype/StillImage" />
        <dc:title></dc:title>
      </cc:Work>
    </rdf:RDF>
  </metadata>
  <g
     id="layer1"
     transform="translate(-49.09814,-12.72142)">
    <rect
       style="fill:#000000;fill-opacity:1;stroke:#000000;stroke-width:0;stroke-miterlimit:4;stroke-dasharray:none;stroke-opacity:1"
       id="rect4486-7"
       width="109.98888"
       height="21.979759"
       x="49.098461"
       y="36.819202" />
    <path
       style="fill:#000000;fill-opacity:1;stroke:#000000;stroke-width:0;stroke-linecap:butt;stroke-linejoin:miter;stroke-miterlimit:4;stroke-dasharray:none;stroke-opacity:1"
       d="m 49.098461,36.754589 c 0.442482,-0.11062 1.333626,-0.334732 1.699804,-0.57885 0.07413,-0.04942 0.109302,-0.149146 0.188987,-0.188989 0.151191,-0.07559 0.415774,0.0756 0.566965,0 0.05635,-0.02817 -0.05635,-0.160814 0,-0.188987 0.112691,-0.05635 0.25845,0.03984 0.377976,0 0.589894,-0.19663 -0.063,-0.125992 0.188989,-0.377976 0.08909,-0.08909 0.288885,0.08909 0.377976,0 0,-0.50397 -0.063,0.063 0.188987,-0.188989 0.04454,-0.04454 -0.04454,-0.144444 0,-0.188989 0.08909,-0.08909 0.288887,0.08909 0.377978,0 0.04454,-0.04454 -0.04454,-0.144441 0,-0.188987 0.05171,-0.05171 0.653428,0.05126 0.755952,0 0.07968,-0.03984 0.109304,-0.149145 0.188986,-0.188989 0.05635,-0.02817 0.132644,0.02817 0.188989,0 0.07969,-0.03984 0.109305,-0.149145 0.18899,-0.188986 0.112688,-0.05635 0.265284,0.05635 0.377975,0 0.07968,-0.03984 0.109302,-0.149146 0.188987,-0.18899 0.112691,-0.05635 0.288888,0.08909 0.377978,0 0.04454,-0.04454 -0.04454,-0.144444 0,-0.188986 0.08909,-0.08909 0.265285,0.05634 0.377976,0 0.07968,-0.03984 0.109302,-0.149148 0.188987,-0.188989 0.05635,-0.02817 0.125992,0 0.188989,0 0.125992,0 0.265285,0.05635 0.377976,0 0.05635,-0.02817 -0.05635,-0.160817 0,-0.18899 0.0553,-0.02765 0.979241,0 1.133927,0 h 3.023812 1.133927 c 0.125992,0 0.258451,0.03984 0.377976,0 1.070748,-0.535373 -0.281725,0.07043 0.755952,-0.188986 0.136657,-0.03417 0.241318,-0.154824 0.377978,-0.188989 0.12223,-0.03056 0.258448,0.03984 0.377976,0 0.08452,-0.02817 0.104468,-0.160814 0.188987,-0.188987 0.119528,-0.03984 0.255746,0.03056 0.377976,0 0.136657,-0.03417 0.244342,-0.144444 0.377978,-0.188989 0.05976,-0.01992 0.129223,0.01992 0.188987,0 0.133635,-0.04455 0.241318,-0.154824 0.377975,-0.188987 0.244462,-0.06112 0.516901,0.07968 0.755955,0 0.08452,-0.02817 0.104468,-0.160816 0.188986,-0.188989 0.119526,-0.03984 0.258451,0.03984 0.377976,0 0.08452,-0.02817 0.109305,-0.149146 0.188989,-0.188989 0.05635,-0.02817 0.125992,0 0.188987,0 0.125992,-0.063 0.260771,-0.11085 0.377978,-0.188987 0.07413,-0.04942 0.109302,-0.149146 0.188987,-0.188989 0.202311,-0.101153 0.403315,0.16365 0.755952,-0.188987 0.04454,-0.04454 -0.04454,-0.144444 0,-0.188989 0.04454,-0.04454 0.132643,0.02817 0.188989,0 0.159369,-0.07968 0.218606,-0.298291 0.377976,-0.377976 0.112691,-0.05635 0.265284,0.05635 0.377975,0 0.144368,-0.07218 0.438992,-0.524306 0.566965,-0.566965 0.119526,-0.03984 0.258451,0.03984 0.377976,0 0.08452,-0.02817 0.114861,-0.13957 0.188989,-0.188986 0.234411,-0.156274 0.521542,-0.221703 0.755952,-0.377976 0.07413,-0.04942 0.109305,-0.149148 0.188989,-0.188989 0.05634,-0.02817 0.132641,0.02817 0.188987,0 0.430165,-0.430165 -0.03914,-0.04995 0.377976,-0.18899 1.368919,-0.456305 -0.297961,0.05449 0.566965,-0.377975 0.04969,-0.02485 0.657127,0 0.755951,0 0.063,0 0.144444,0.04454 0.18899,0 0.04454,-0.04455 -0.04455,-0.144442 0,-0.188987 0.04454,-0.04454 0.125991,0 0.188986,0 0.063,0 0.144444,-0.04454 0.188989,0 0.0996,0.09961 0.11085,0.260771 0.18899,0.377976 0.313396,0.470096 0.04342,0.02172 0.377975,0.188986 0.05018,0.02508 0.541875,0.516787 0.566963,0.566965 0.02817,0.05635 -0.02817,0.132644 0,0.18899 0.03984,0.07968 0.149145,0.109302 0.188989,0.188986 0.02817,0.05635 -0.02817,0.132644 0,0.188989 0.07968,0.15937 0.298291,0.218607 0.377976,0.377976 0.05635,0.112692 -0.05635,0.265285 0,0.377976 0.432461,0.864926 -0.07833,-0.801955 0.377976,0.566965 0.01992,0.05976 -0.01992,0.129225 0,0.188987 0.04454,0.133635 0.144444,0.244342 0.188989,0.377978 0.01992,0.05976 -0.04454,0.144441 0,0.188987 0.04454,0.04454 0.144444,-0.04455 0.188986,0 0.0945,0.09449 -0.09449,0.472471 0,0.566965 0.0945,0.09449 0.472472,-0.09449 0.566965,0 0.04455,0.04455 -0.04454,0.144444 0,0.188986 0.04455,0.04455 0.125992,0 0.18899,0 h 0.944941 c 0.125991,0 0.255743,0.03056 0.377975,0 0.937514,-0.234378 0.15294,-0.04042 0.377976,-0.377975 0.148254,-0.222383 0.418709,-0.344583 0.566965,-0.566963 0.07814,-0.117208 0.11085,-0.260771 0.188987,-0.377978 0.04942,-0.07413 0.149145,-0.109302 0.188989,-0.188987 0.04205,-0.08409 -0.02881,-0.669512 0,-0.755952 0.02817,-0.08452 0.160814,-0.10447 0.188987,-0.188989 0.05976,-0.179289 0,-0.377976 0,-0.566965 v -1.133927 c 0,-0.168902 0.03011,-0.884717 0,-0.944941 -0.03984,-0.07969 -0.149146,-0.109305 -0.188987,-0.188989 -0.05635,-0.112689 0.08909,-0.288886 0,-0.377976 -0.04454,-0.04454 -0.132644,0.02817 -0.188989,0 -0.07968,-0.03984 -0.109305,-0.149146 -0.188987,-0.188987 -0.05635,-0.02817 -0.125994,0 -0.188989,0 h -1.133927 c -0.063,0 -0.144444,-0.04454 -0.18899,0 -0.0076,0.0076 0,0.686549 0,0.755952 0,0.09882 -0.02484,0.70626 0,0.755952 0.03984,0.07968 0.125992,0.125992 0.18899,0.188989 0.06299,0.06299 0.109302,0.149145 0.188986,0.188986 0.05635,0.02817 0.132644,-0.02817 0.188989,0 0.07968,0.03984 0.109302,0.149146 0.188987,0.18899 0.05635,0.02817 0.125992,0 0.188989,0 h 0.188987 0.944941 0.566965 c 0.06299,0 0.129225,0.01992 0.188989,0 0.133633,-0.04455 0.251984,-0.125992 0.377976,-0.18899 0.125992,-0.06299 0.26077,-0.110849 0.377975,-0.188986 0.283483,-0.188989 0.188987,-0.377976 0.566965,-0.566965 0.112689,-0.05635 0.265285,0.05635 0.377976,0 0.159369,-0.07969 0.235432,-0.271069 0.377976,-0.377976 0.112691,-0.08452 0.278371,-0.08938 0.377976,-0.188989 0.04454,-0.04454 0,-0.125992 0,-0.188987 0.125992,-0.063 0.251984,-0.125992 0.377976,-0.188989 0.125992,-0.063 0.244342,-0.144441 0.377976,-0.188987 0.349101,-0.116369 0.0896,0.288378 0.566965,-0.188989 0.09961,-0.09961 0.08938,-0.278371 0.188989,-0.377976 0.0996,-0.09961 0.26077,-0.110852 0.377976,-0.188989 0.163076,-0.108717 0.419348,-0.419346 0.566962,-0.566962 0.063,-0.063 0.109305,-0.149146 0.188989,-0.18899 0.05635,-0.02817 0.144444,0.04455 0.188989,0 0.09961,-0.09961 0.07178,-0.299839 0.188987,-0.377975 1.070933,0 0.063,0.125992 0.377976,-0.18899 0.08909,-0.08909 0.288888,0.08909 0.377976,0 0.04454,-0.04454 -0.02817,-0.13264 0,-0.188986 0.03984,-0.07969 0.149148,-0.109305 0.188989,-0.188989 0.02817,-0.05635 -0.05635,-0.160814 0,-0.188987 0.112691,-0.05635 0.251984,0 0.377976,0 h 0.377975 1.133931 0.377975 c 0.125992,0 0.255747,0.03056 0.377976,0 0.136657,-0.03417 0.24434,-0.144444 0.377976,-0.188989 0.05976,-0.01992 0.132644,0.02817 0.188989,0 0.07968,-0.03984 0.104468,-0.160817 0.188987,-0.188987 0.119528,-0.03984 0.251984,0 0.377976,0 0.063,0 0.132643,0.02817 0.188989,0 0.07968,-0.03984 0.125992,-0.125994 0.188989,-0.188989 0.125992,0 0.258448,0.03984 0.377976,0 0.08452,-0.02817 0.104468,-0.160816 0.188986,-0.188989 0.119529,-0.03984 0.251984,0 0.377976,0 0.063,0 0.132644,0.02817 0.188989,0 0.07968,-0.03984 0.104471,-0.160814 0.18899,-0.188987 0.200818,-0.06694 0.55513,0.06694 0.755951,0 0.267269,-0.08909 0.488683,-0.288888 0.755952,-0.377976 0.119528,-0.03984 0.25845,0.03984 0.377976,0 0.133635,-0.04454 0.244342,-0.144444 0.377976,-0.188989 0.106627,-0.03554 0.44278,0 0.566965,0 h 1.511905 0.944941 0.377976 c 0.063,0 0.132641,-0.02817 0.188987,0 0.07968,0.03984 0.109304,0.149146 0.188989,0.188989 0.05635,0.02817 0.132643,-0.02817 0.188986,0 0.226788,0.113393 0.340181,0.45357 0.566965,0.566963 0.05635,0.02817 0.132644,-0.02817 0.18899,0 0.07968,0.03984 0.109302,0.149145 0.188986,0.188989 0.05635,0.02817 0.144444,-0.04454 0.18899,0 0.08909,0.08909 -0.08909,0.288885 0,0.377976 0.08909,0.08909 0.265288,-0.05635 0.377978,0 0.78652,0.393261 -0.202038,-0.01304 0.18899,0.377976 0.0891,0.08909 0.26528,-0.05635 0.37797,0 0.0797,0.03984 0.1093,0.149145 0.18899,0.188989 0.11269,0.05635 0.26529,-0.05635 0.37797,0 0.0797,0.03984 0.10931,0.149145 0.18899,0.188986 0.0564,0.02817 0.126,0 0.18899,0 0.126,0 0.25845,-0.03984 0.37798,0 0.0845,0.02817 0.10447,0.160817 0.18899,0.18899 0.17929,0.05976 0.37797,0 0.56696,0 h 1.13393 1.32291 c 0.0449,0 0.7136,0.02117 0.75596,0 0.0797,-0.03984 0.11486,-0.139571 0.18899,-0.18899 0.1172,-0.07814 0.26077,-0.110849 0.37797,-0.188986 0.14826,-0.09884 0.21861,-0.298291 0.37798,-0.377976 0.0563,-0.02817 0.14444,0.04454 0.18899,0 0.0445,-0.04454 -0.0282,-0.132644 0,-0.188989 0.0251,-0.05018 0.51678,-0.541875 0.56696,-0.566965 0.0564,-0.02817 0.14445,0.04454 0.18899,0 0.0996,-0.09961 0.11085,-0.260771 0.18899,-0.377976 0.0988,-0.148254 0.25198,-0.251984 0.37797,-0.377976 0.063,-0.06299 0.12599,-0.125992 0.18899,-0.188986 0.063,-0.063 0.1093,-0.149149 0.18899,-0.18899 0.0563,-0.02817 0.13264,0.02817 0.18899,0 0.78652,-0.39326 -0.20204,0.01304 0.18898,-0.377975 0.0445,-0.04455 0.14445,0.04454 0.18899,0 0.0446,-0.04455 -0.0282,-0.132644 0,-0.18899 0.0398,-0.07968 0.14915,-0.109302 0.18899,-0.188986 0.0282,-0.05635 -0.0282,-0.132644 0,-0.188989 0.0398,-0.07969 0.14915,-0.109305 0.18899,-0.188987 0.0288,-0.05752 0,-0.481854 0,-0.566965 0,-0.063 0.0445,-0.144444 0,-0.188989 -0.39102,-0.391023 0.0153,0.597535 -0.37798,-0.188987 -0.0282,-0.05635 0.0446,-0.144444 0,-0.188989 -0.006,-0.0061 -0.52112,0 -0.56696,0 h -0.18899 c -0.063,0 -0.14444,0.04454 -0.18899,0 -0.0445,-0.04454 0.0446,-0.144444 0,-0.188987 -0.0445,-0.04454 -0.12599,0 -0.18898,0 h -1.13393 c -0.0458,0 -0.56089,-0.0061 -0.56697,0 -0.0445,0.04454 0.0282,0.132641 0,0.188987 -0.0398,0.07968 -0.14914,0.109305 -0.18899,0.188989 -0.0288,0.05751 0,0.481851 0,0.566962 v 0.18899 -0.377976 c 0,0.188986 -0.0598,0.387673 0,0.566965 0.003,0.0082 0.52465,0 0.75596,0 h 0.56696 c 0.063,0 0.18899,-0.063 0.18899,0 0,0.063 -0.18899,-0.063 -0.18899,0 0,0.08909 0.14915,0.109302 0.18899,0.188987 0.0288,0.05751 0,0.481851 0,0.566965 0,0.06299 0.0445,0.144441 0,0.188986 -0.0445,0.04454 -0.12599,0 -0.18899,0 h -1.13393 c -0.063,0 -0.13264,0.02817 -0.18899,0 -0.0797,-0.03984 -0.1093,-0.149145 -0.18898,-0.188986 -0.11269,-0.05635 -0.28889,0.08909 -0.37798,0 -0.0446,-0.04455 0,-0.125992 0,-0.18899 0,-0.503967 0.063,0.063 -0.18899,-0.188986 -0.0445,-0.04455 0.0199,-0.129225 0,-0.188989 -0.0445,-0.133636 -0.14444,-0.244341 -0.18899,-0.377976 -0.0199,-0.05976 0.0282,-0.132644 0,-0.18899 -0.0398,-0.07968 -0.16081,-0.104468 -0.18899,-0.188986 -0.0398,-0.119528 0,-0.251984 0,-0.377976 0,-0.188989 0.0458,-0.383619 0,-0.566965 -0.0216,-0.08643 -0.16081,-0.104471 -0.18898,-0.188989 -0.0347,-0.104185 0,-0.973542 0,-1.133928 0,-0.09883 -0.0249,-0.70626 0,-0.755951 0.0797,-0.159369 0.29829,-0.21861 0.37797,-0.377976 0.0282,-0.05635 -0.0445,-0.144444 0,-0.188989 0.0446,-0.04454 0.126,0 0.18899,0 h 0.94494 1.7009 0.18898 c 0.063,0 0.14445,-0.04454 0.18899,0 0.0446,0.04454 -0.0445,0.144444 0,0.188989 0.0891,0.08909 0.26529,-0.05635 0.37798,0 0.0797,0.03984 0.1093,0.149146 0.18898,0.188987 0.11879,0.05939 0.63717,-0.05939 0.75596,0 0.15164,0.07582 0.22633,0.302156 0.37797,0.377975 0.0563,0.02817 0.14445,-0.04454 0.18899,0 0.0446,0.04455 -0.0445,0.144444 0,0.18899 0.12621,0.126211 0.25177,-0.126212 0.37798,0 0.0445,0.04454 -0.0446,0.144441 0,0.188986 0.0445,0.04454 0.14444,-0.04454 0.18899,0 0.39102,0.391025 -0.59754,-0.01529 0.18899,0.377979 0.0563,0.02817 0.14444,-0.04455 0.18898,0 0.39103,0.391022 -0.59753,-0.01529 0.18899,0.377975 0.0564,0.02817 0.13264,-0.02817 0.18899,0 0.0797,0.03984 0.12599,0.125992 0.18899,0.188987 0.063,0.063 0.14914,0.109305 0.18899,0.188989 0.0282,0.05635 -0.0445,0.144442 0,0.188987 0.0386,0.03864 0.49203,-0.03747 0.56696,0 0.22679,0.113395 0.34018,0.453572 0.56696,0.566965 0.0564,0.02817 0.13265,-0.02817 0.18899,0 0.0797,0.03984 0.12599,0.125992 0.18899,0.188989 0.063,0.063 0.14915,0.109302 0.18899,0.188987 0.0282,0.05635 -0.0446,0.144444 0,0.188989 0.0891,0.08909 0.26528,-0.05635 0.37797,0 0.78653,0.393261 -0.20203,-0.01304 0.18899,0.377976 0.0446,0.04454 0.12599,0 0.18899,0 0.0528,0 0.91537,-0.01479 0.94494,0 0.0564,0.02817 -0.0563,0.160816 0,0.188989 0.59881,0.299405 0.17587,-0.391094 0.75595,0.188987 0.0446,0.04454 -0.0563,0.160816 0,0.188989 0.11269,0.05635 0.25845,-0.03984 0.37798,0 0.0845,0.02817 0.1093,0.149145 0.18899,0.188986 0.15119,0.0756 0.41577,-0.07559 0.56696,0 0.0797,0.03984 0.10931,0.149146 0.18899,0.18899 0.0563,0.02817 0.13264,-0.02817 0.18899,0 0.0797,0.03984 0.1093,0.149145 0.18899,0.188986 0.0563,0.02817 0.12599,0 0.18898,0 0.126,0.063 0.26078,0.110853 0.37798,0.188989 0.0741,0.04942 0.10931,0.149146 0.18899,0.18899 0.087,0.04351 0.93805,0 1.13393,0 1.17714,0 -0.47072,-0.05635 0.75595,0.188986 0.24808,0.04962 0.83346,0 1.13393,0 0.12599,0 0.25845,-0.03984 0.37797,0 0.0845,0.02817 0.10931,0.149146 0.18899,0.188989 0.0702,0.03511 1.16169,0 1.32292,0 0.063,0 0.13264,-0.02817 0.18899,0 0.0797,0.03984 0.10447,0.160814 0.18899,0.188987 0.11952,0.03984 0.25198,0 0.37797,0 h 0.37798 1.5119 1.13393 c 0.063,0 0.18899,-0.063 0.18899,0 0,0.063 -0.25199,0 -0.18899,0 h 0.37798 1.32291 c 0.0851,0 0.50945,-0.02876 0.56697,0 0.0797,0.03984 0.1093,0.149146 0.18899,0.188989 0.0563,0.02817 0.14444,-0.04454 0.18898,0 0.0445,0.04454 -0.0445,0.144442 0,0.188987 0.0445,0.04454 0.14445,-0.04454 0.18899,0 0.0446,0.04454 -0.0445,0.144444 0,0.188989 0.0891,0.08909 0.28889,-0.08909 0.37798,0 0.0891,0.08909 -0.0891,0.288885 0,0.377976 0.0445,0.04454 0.14444,-0.04454 0.18899,0 0.0445,0.04454 -0.0445,0.144444 0,0.188989 0.0445,0.04454 0.18899,-0.063 0.18899,0 0,0.05647 -0.6268,-0.12441 0,0.188987 0.0563,0.02817 0.14444,-0.04455 0.18898,0 0.0446,0.04454 0,0.125992 0,0.188989 0,0.131447 -0.0342,0.876596 0,0.944941 0.0399,0.07968 0.14915,0.109302 0.18899,0.188986 0.0248,0.04969 0,0.657127 0,0.755955 v 1.889879 c 0,0.195511 0.0445,0.261209 -0.18899,0.377975 -0.0563,0.02817 -0.13264,-0.02817 -0.18898,0 -0.0797,0.03984 -0.10931,0.149146 -0.18899,0.18899 -0.0563,0.02817 -0.13265,-0.02817 -0.18899,0 -0.0797,0.03984 -0.10931,0.149145 -0.18899,0.188989 -0.0575,0.02876 -0.48185,0 -0.56696,0 h -1.13393 -1.32292 c -0.063,0 -0.14444,0.04454 -0.18899,0 -0.0445,-0.04454 0.0446,-0.144444 0,-0.188989 -0.0445,-0.04455 -0.14444,0.04454 -0.18898,0 -0.0386,-0.03864 0.0375,-0.492033 0,-0.566965 -0.0399,-0.07969 -0.14915,-0.109302 -0.18899,-0.188987 -0.0563,-0.112691 0.0563,-0.265287 0,-0.377976 -0.0398,-0.07968 -0.14915,-0.109304 -0.18899,-0.188989 -0.0282,-0.05635 0,-0.125992 0,-0.188989 v -0.188987 -1.13393 -0.377976 c 0,-0.06299 -0.063,-0.188986 0,-0.188986 0.063,0 0,0.251984 0,0.188986 0,-0.125992 -0.0563,-0.265284 0,-0.377976 0.0282,-0.05635 0.12599,0 0.18899,0 h 0.94494 0.56696 c 0.063,0 0.18899,-0.06299 0.18899,0 0,0.063 -0.18899,-0.06299 -0.18899,0 0,0.393261 0.26503,0.07604 0.37798,0.18899 0.008,0.0076 0,0.686548 0,0.755951 v 0.18899 c 0,-0.125995 -0.0891,-0.467067 0,-0.377979 0.14086,0.140864 0.14067,0.373703 0.18898,0.566965 0.0403,0.161031 0,0.400341 0,0.566965 v 0.377976 c 0,-0.738272 0.0563,-0.245335 -0.18898,0 -0.009,0.0086 -0.85584,0 -0.94494,0 -0.063,0 -0.16082,0.05635 -0.18899,0 -0.0845,-0.169037 0,-0.377976 0,-0.566965 v -0.188987 c 0,-0.063 -0.063,-0.188989 0,-0.188989 0.063,0 0,0.125992 0,0.188989 0,0.063 0.063,0.188987 0,0.188987 -0.063,0 0,-0.251984 0,-0.188987 v 0.377976 0.188987 c 0,0.063 0.063,0.188989 0,0.188989 -0.063,0 -0.063,-0.188989 0,-0.188989 0.0891,0 0.1093,0.149145 0.18899,0.188989 0.0497,0.02484 0.65712,0 0.75595,0 h 0.18899 0.37797 0.18899 c 0.063,0 0.14444,0.04454 0.18899,0 0.0891,-0.08909 -0.0891,-0.288885 0,-0.377976 0.0445,-0.04454 0.14444,0.04454 0.18899,0 0.0445,-0.04454 0,-0.125992 0,-0.188989 v -0.188987 -1.511906 -0.188986 c 0,-0.063 0.0445,-0.144444 0,-0.188989 -0.0445,-0.04455 -0.12599,0 -0.18899,0 h -0.18899 c 0.12599,0 0.37798,0.125992 0.37798,0 0,-0.353489 -1.04672,-0.101778 -1.13393,-0.18899 -0.0446,-0.04454 0.0445,-0.144441 0,-0.188986 -0.0891,-0.08909 -0.28889,0.08909 -0.37798,0 -0.0445,-0.04454 0.0446,-0.144444 0,-0.188989 -0.0445,-0.04455 -0.14444,0.04454 -0.18898,0 -0.0446,-0.04455 0.0445,-0.144442 0,-0.188987 -0.0446,-0.04454 -0.126,0 -0.18899,0 h -0.18899 -1.32292 c -0.0851,0 -0.50945,-0.02876 -0.56696,0 -0.78653,0.393261 0.20203,-0.01304 -0.18899,0.377976 -0.0446,0.04454 -0.14444,-0.04454 -0.18899,0 -0.0445,0.04454 0.0282,0.132641 0,0.188986 -0.0398,0.07969 -0.14915,0.109305 -0.18899,0.18899 -0.0756,0.151191 0.0756,0.415774 0,0.566965 -0.0398,0.07968 -0.14914,0.109302 -0.18899,0.188986 -0.0244,0.04886 0,0.999974 0,1.13393 v 1.133928 c 0,0.063 -0.0445,0.144444 0,0.188989 0.0945,0.09449 0.47248,-0.0945 0.56697,0 0.0445,0.04454 -0.0282,0.132641 0,0.188987 0.39326,0.786524 -0.013,-0.202034 0.37798,0.188989 0.0445,0.04454 -0.0446,0.144444 0,0.188986 0.0455,0.04548 0.71047,-0.04548 0.75595,0 0.0445,0.04455 -0.0446,0.144444 0,0.18899 0.0445,0.04454 0.13264,-0.02817 0.18899,0 0.0797,0.03984 0.1093,0.149145 0.18899,0.188989 0.11269,0.05634 0.28888,-0.08909 0.37797,0 0.0446,0.04454 -0.0282,0.132641 0,0.188986 0.0398,0.07969 0.12599,0.125992 0.18899,0.18899 0.063,0.06299 0.1093,0.149145 0.18899,0.188986 0.11269,0.05635 0.28888,-0.08909 0.37797,0 0.0446,0.04454 -0.0445,0.144444 0,0.188989 0.0891,0.08909 0.28889,-0.08909 0.37798,0 0.0445,0.04455 -0.0446,0.144444 0,0.188987 0.0445,0.04454 0.12922,-0.01992 0.18899,0 0.13363,0.04454 0.24434,0.144444 0.37797,0.188989 0.10663,0.03554 0.44278,0 0.56697,0 h 1.13393 3.21279 2.07887 c 0.12415,0 0.71151,0.02222 0.75595,0 0.0563,-0.02817 -0.0445,-0.144444 0,-0.188989 0.0445,-0.04454 0.126,0 0.18899,0 0.16039,0 1.02975,0.03473 1.13393,0 0.0845,-0.02817 0.10447,-0.160814 0.18899,-0.188987 0.23905,-0.07968 0.5169,0.07969 0.75595,0 0.0845,-0.02817 0.10931,-0.149145 0.18899,-0.188989 0.0749,-0.03747 0.52833,0.03864 0.56697,0 0.0891,-0.08909 -0.0891,-0.288885 0,-0.377976 0.006,-0.0061 0.52112,0 0.56696,0 h 3.2128 c 0.0694,0 0.74834,0.0076 0.75595,0 0.0445,-0.04454 -0.0446,-0.144444 0,-0.188986 0.0445,-0.04454 0.14444,0.04454 0.18899,0 0.0445,-0.04454 -0.0445,-0.144444 0,-0.188989 0.0891,-0.08909 0.28888,0.08909 0.37797,0 0.0446,-0.04455 -0.0445,-0.144444 0,-0.18899 0.0945,-0.09449 0.47247,0.0945 0.56697,0 0.0445,-0.04454 -0.0445,-0.144441 0,-0.188986 0.0891,-0.08909 0.28888,0.08909 0.37797,0 0.0445,-0.04454 -0.0445,-0.144444 0,-0.188989 0.0445,-0.04455 0.18899,-0.063 0.18899,0 0,0.063 -0.25198,0 -0.18899,0 h 0.37798 c 0.063,0 0.14444,0.04454 0.18899,0 0.0891,-0.08909 -0.0891,-0.288886 0,-0.377976 0.0891,-0.08909 0.28888,0.08909 0.37798,0 0.0445,-0.04454 -0.0446,-0.144444 0,-0.188987 0.0445,-0.04454 0.13264,0.02817 0.18898,0 0.0797,-0.03984 0.12599,-0.125994 0.18899,-0.188989 0.063,-0.063 0.14915,-0.109305 0.18899,-0.188989 0.0282,-0.05635 -0.0445,-0.144442 0,-0.188987 0.0445,-0.04454 0.13264,0.02817 0.18899,0 0.78652,-0.393261 -0.20204,0.01304 0.18899,-0.377976 0.0445,-0.04454 0.14444,0.04455 0.18898,0 0.0446,-0.04454 0.0446,-0.144444 0,-0.188989 -0.0891,-0.08909 -0.28888,0.08909 -0.37797,0 -0.0445,-0.04454 0.0445,-0.144444 0,-0.188986 -0.0445,-0.04455 -0.13265,0.02817 -0.18899,0 -0.0797,-0.03984 -0.1093,-0.149149 -0.18899,-0.18899 -0.11269,-0.05635 -0.28888,0.08909 -0.37797,0 -0.0446,-0.04454 0.0282,-0.132643 0,-0.188989 -0.0399,-0.07968 -0.14915,-0.109302 -0.18899,-0.188987 -0.0756,-0.15119 0.0756,-0.415774 0,-0.566965 -0.0398,-0.07968 -0.14915,-0.109304 -0.18899,-0.188986 -0.0288,-0.05752 0,-0.481854 0,-0.566965 v -1.322917 c 0,-0.09883 -0.0248,-0.70626 0,-0.755951 0.20893,-0.417865 0.11729,-0.05865 0.37798,-0.18899 0.0797,-0.03984 0.1093,-0.149145 0.18898,-0.188989 0.0564,-0.02817 0.13265,0.02817 0.18899,0 0.0797,-0.03984 0.10931,-0.149145 0.18899,-0.188986 0.0575,-0.02876 0.48185,0 0.56696,0 h 1.13393 c 0.13396,0 1.08507,-0.02442 1.13393,0 0.0797,0.03984 0.1093,0.149145 0.18899,0.188986 0.0563,0.02817 0.14444,-0.04454 0.18899,0 0.0445,0.04454 -0.0445,0.144444 0,0.188989 0.0445,0.04455 0.14444,-0.04454 0.18899,0 0.0445,0.04455 -0.0446,0.144444 0,0.18899 0.0445,0.04454 0.12599,0 0.18898,0 0,0.06299 -0.0282,0.13264 0,0.188986 0.0399,0.07969 0.12599,0.125992 0.18899,0.188989 0.063,0.063 0.10931,0.149146 0.18899,0.188987 0.0563,0.02817 0.14444,-0.04454 0.18899,0 0.0891,0.08909 -0.0891,0.288888 0,0.377976 0.0445,0.04454 0.14444,-0.04454 0.18899,0 0.0445,0.04454 -0.0446,0.144444 0,0.188989 0.0445,0.04454 0.14444,-0.04454 0.18898,0 0.0446,0.04454 -0.0445,0.144444 0,0.188989 0.0446,0.04454 0.14445,-0.04454 0.18899,0 0.0455,0.04547 -0.0455,0.710475 0,0.755952 0.0445,0.04454 0.14444,-0.04454 0.18899,0 0.0445,0.04454 -0.0446,0.144441 0,0.188986 0.0445,0.04455 0.14444,-0.04454 0.18899,0 0.0445,0.04455 0,0.125992 0,0.18899 v 0.188989 -0.377979 1.13393 c 0,0.063 0.0445,0.144442 0,0.188987 -0.0445,0.04454 -0.14445,-0.04454 -0.18899,0 -0.0891,0.08909 0.0891,0.288888 0,0.377979 -0.0945,0.09449 -0.47247,-0.0945 -0.56696,0 -0.0446,0.04454 0.0445,0.144441 0,0.188986 -0.0446,0.04454 -0.13265,-0.02817 -0.18899,0 -0.0797,0.03984 -0.10931,0.149146 -0.18899,0.188989 -0.11269,0.05635 -0.26529,-0.05635 -0.37798,0 -0.0797,0.03984 -0.1093,0.149146 -0.18898,0.188987 -0.0564,0.02817 -0.14445,-0.04454 -0.18899,0 -0.0445,0.04454 0.0282,0.132643 0,0.188989 -0.0398,0.07969 -0.14915,0.109302 -0.18899,0.188987 -0.0248,0.04969 0,0.657127 0,0.755954 0,0.08511 -0.0288,0.509447 0,0.566962 0.0398,0.07969 0.12599,0.125992 0.18899,0.18899 0.063,0.06299 0.1093,0.149145 0.18899,0.188989 0.0563,0.02817 0.14444,-0.04454 0.18898,0 0.0446,0.04454 -0.0282,0.132641 0,0.188986 0.0399,0.07969 0.12599,0.125992 0.18899,0.18899 0.063,0.06299 0.10931,0.149145 0.18899,0.188986 0.11269,0.05635 0.26528,-0.05635 0.37798,0 0.0797,0.03984 0.1093,0.149146 0.18898,0.188989 0.0564,0.02817 0.14445,-0.04454 0.18899,0 0.0445,0.04455 -0.0445,0.144444 0,0.188987 0.0445,0.04454 0.13264,-0.02817 0.18899,0 0.0797,0.03984 0.1093,0.149146 0.18899,0.188989 0.11922,0.05961 0.82571,-0.05961 0.94494,0 0.78652,0.393261 -0.20204,-0.01304 0.18898,0.377976 0.0945,0.09449 0.47248,-0.09449 0.56697,0 0.0445,0.04454 -0.0446,0.144444 0,0.188989 0.0445,0.04455 0.14444,-0.04454 0.18899,0 0.0445,0.04455 -0.0445,0.144442 0,0.188987 0.0445,0.04454 0.14444,-0.04454 0.18899,0 0.0445,0.04454 -0.0445,0.144444 0,0.188989 0.0445,0.04454 0.14444,-0.04454 0.18899,0 0.0445,0.04454 -0.0446,0.144444 0,0.188987 0.0445,0.04454 0.14444,-0.04454 0.18898,0 0.0446,0.04454 -0.0445,0.144444 0,0.188989 0.0446,0.04455 0.14445,-0.04454 0.18899,0 0.0445,0.04455 -0.0445,0.144444 0,0.188989 0.0445,0.04454 0.14444,-0.04455 0.18899,0 0.0445,0.04454 -0.0445,0.144441 0,0.188987 0.0445,0.04454 0.13264,-0.02817 0.18899,0 0.15937,0.07968 0.2186,0.298291 0.37797,0.377976 0.0564,0.02817 0.14445,-0.04455 0.18899,0 0.0445,0.04454 -0.0445,0.144443 0,0.188989 0.0445,0.04455 0.14444,-0.04455 0.18899,0 0.0445,0.04455 0.063,0.188986 0,0.188986 -0.063,0 -0.063,-0.188986 0,-0.188986 0.0891,0 0.1093,0.149145 0.18899,0.188986 0.0563,0.02817 0.14444,-0.04454 0.18899,0 0.0445,0.04455 0,0.125992 0,0.18899 0,0.06299 0.063,0.188989 0,0.188989 -0.063,0 0,-0.251987 0,-0.188989 0,0.125991 -0.0564,0.265284 0,0.377975 0.0282,0.05635 0.14444,-0.04454 0.18898,0 0.0446,0.04455 -0.0445,0.144444 0,0.18899 0.0446,0.04455 0.14445,-0.04455 0.18899,0 0.0446,0.04455 -0.0445,0.144441 0,0.188986 0.0446,0.04455 0.14444,-0.04454 0.18899,0 0.12574,0.125743 -0.12574,0.252235 0,0.377976 0.0445,0.04454 0.14444,-0.04454 0.18899,0 0.25198,0.251984 -0.31498,0.188989 0.18898,0.188989 0.063,0 0.18899,-0.063 0.18899,0 0,0.063 -0.18899,-0.063 -0.18899,0 0,0.393261 0.26504,0.07604 0.37798,0.188989 0.0446,0.04454 -0.0445,0.144442 0,0.188987 0.0446,0.04455 0.14444,-0.04454 0.18899,0 0.0445,0.04455 -0.0446,0.144444 0,0.188989 0.0891,0.08909 0.28889,-0.08909 0.37798,0 0.0445,0.04454 -0.0282,0.132641 0,0.188987 0.0398,0.07968 0.14914,0.109304 0.18898,0.188989 0.0375,0.07493 -0.0386,0.528328 0,0.566965 0.0445,0.04454 0.14335,0.03195 0.18789,0.0765 0.008,0.0076 0.008,0.610051 0.008,0.679454 0,0.06299 -0.27129,-0.07094 -0.31589,-0.02639 -0.0891,0.08909 0.0434,0.159041 -0.0693,0.215381 -0.78653,0.393264 0.20203,-0.01304 -0.18899,0.377979 -0.006,0.0061 -0.52113,0 -0.56697,0 h -2.83482 -7.18154 -1.13393 c -0.063,0 -0.14445,0.04454 -0.18899,0 -0.0445,-0.04455 0.0445,-0.144444 0,-0.188989 -0.14426,-0.144259 -0.3337,0.159467 -0.37798,0.188989 -0.1172,0.07814 -0.26077,0.11085 -0.37797,0.188986 -0.0741,0.04942 -0.10931,0.149146 -0.18899,0.18899 -0.0575,0.02873 -0.62546,0 -0.75596,0 h -1.70089 -10.96131 -3.40178 -1.13393 c -0.18899,0 -0.38362,0.04584 -0.56696,0 -0.13666,-0.03417 -0.24435,-0.144444 -0.37798,-0.18899 -0.11953,-0.03984 -0.25198,0 -0.37798,0 h -0.94494 -5.85863 -2.26786 c -0.0449,0 -0.71359,-0.02117 -0.75595,0 -0.0797,0.03984 -0.1093,0.149146 -0.18899,0.18899 -0.0563,0.02817 -0.12599,0 -0.18898,0 -0.18311,0 -1.02125,-0.03756 -1.13393,0 -0.13364,0.04455 -0.24132,0.154823 -0.37798,0.188986 -0.18335,0.04584 -0.37798,0 -0.56696,0 h -1.7009 -4.53571 -1.32292 -0.37797 c -0.063,0 -0.12923,0.01992 -0.18899,0 -0.13364,-0.04454 -0.23712,-0.188986 -0.37798,-0.188986 -0.063,0 0.0446,0.144441 0,0.188986 -0.0445,0.04455 -0.12599,0 -0.18899,0 h -0.18899 -0.75595 -0.37797 c -0.063,0 -0.12788,-0.01527 -0.18899,0 -0.19326,0.04832 -0.3737,0.140674 -0.56696,0.188989 -0.0611,0.01527 -0.13265,-0.02817 -0.18899,0 -0.0797,0.03984 -0.10447,0.160814 -0.18899,0.188987 -0.11953,0.03984 -0.25199,0 -0.37798,0 h -1.13393 -1.511902 c -0.160007,0 -0.654349,0.03387 -0.755952,0 -0.169037,-0.05634 -0.208938,-0.32163 -0.377975,-0.377976 -0.239054,-0.07968 -0.516901,0.07969 -0.755952,0 -0.08452,-0.02817 -0.104471,-0.160814 -0.188989,-0.188986 -0.119526,-0.03984 -0.251984,0 -0.377976,0 -0.125992,-0.063 -0.244343,-0.144444 -0.377976,-0.18899 -0.05976,-0.01992 -0.144444,0.04455 -0.188989,0 -0.04454,-0.04454 0.05635,-0.160816 0,-0.188986 -0.112689,-0.05635 -0.258448,0.03984 -0.377976,0 -0.08452,-0.02817 -0.109304,-0.149149 -0.188986,-0.188989 -0.04969,-0.02484 -0.657127,0 -0.755955,0 -0.124184,0 -0.460338,0.03554 -0.566962,0 -0.133636,-0.04455 -0.244343,-0.144444 -0.377978,-0.18899 -0.170088,-0.05669 -0.396875,0.0567 -0.566963,0 -0.133636,-0.04454 -0.244343,-0.144441 -0.377976,-0.188986 -0.106627,-0.03554 -0.44278,0 -0.566965,0 h -1.511906 -3.212795 c -0.06941,0 -0.748348,-0.0076 -0.755955,0 -0.04454,0.04455 0.04455,0.144444 0,0.188986 -0.08909,0.08909 -0.258447,-0.03984 -0.377975,0 -0.125992,0.063 -0.251984,0.125992 -0.377976,0.18899 0,0.06299 0.04454,0.144443 0,0.188989 -0.04454,0.04454 -0.129225,-0.01992 -0.188989,0 -0.133633,0.04454 -0.24434,0.144441 -0.377976,0.188986 -0.122447,0.04082 -0.790215,0 -0.944941,0 h -2.078868 -5.102678 -8.126489 -2.456844 -1.13393 c -0.125992,0 -0.254431,0.02471 -0.377976,0 -0.195342,-0.03907 -0.3737,-0.140671 -0.566965,-0.188986 -0.06111,-0.01527 -0.129225,0.01992 -0.188986,0 -0.133636,-0.04455 -0.241319,-0.154826 -0.377976,-0.188989 -0.50297,-0.125744 -0.252984,0.125743 -0.755954,0 -0.136658,-0.03417 -0.244341,-0.144444 -0.377976,-0.18899 -0.118949,-0.03965 -0.774592,0 -0.944941,0 h -2.456844 -3.023809 c -0.144468,0 -1.269746,-0.02658 -1.322917,0 -0.07968,0.03984 -0.109305,0.149146 -0.188989,0.18899 -0.05751,0.02876 -0.481851,0 -0.566963,0 h -1.13393 -2.456844 c -0.13145,0 -0.876596,0.03417 -0.944941,0 -0.07968,-0.03984 -0.109304,-0.149146 -0.188989,-0.18899 -0.05635,-0.02817 -0.132641,0.02817 -0.188986,0 -0.07969,-0.03984 -0.109305,-0.149145 -0.18899,-0.188986 -0.178747,-0.08937 -0.496038,0.165637 -0.566965,-0.18899 -0.04942,-0.247089 -0.565874,-0.303093 -0.565874,-0.555077 z"
       id="path4536" />
  </g>
  <path
     style="fill:none;stroke:#000000;stroke-width:0.26458332px;stroke-linecap:butt;stroke-linejoin:miter;stroke-opacity:1"
     d="m 96.815379,8.9250973 c 0.08112,0 0.162239,0 0.243358,0 0.01352,0 0.02847,-0.00605 0.04056,0 0.08968,0.04484 0.01259,0.025173 0.04056,0.081119 0.0085,0.017103 0.03201,0.023458 0.04056,0.04056 0.0062,0.012343 0,0.1034118 0,0.1216781 0,0.094639 0,0.1892774 0,0.2839162 0,0.01352 0,0.02704 0,0.040559 0,0.01352 0.0096,0.031 0,0.04056 -0.0096,0.00956 -0.02704,0 -0.04056,0 -0.01352,0 -0.02704,0 -0.04056,0 -0.108159,0 -0.216315,0 -0.324474,0 -0.0676,0 -0.1352,0 -0.202798,0 -0.01352,0 -0.031,0.00956 -0.04056,0 -0.0096,-0.00956 0.0061,-0.028467 0,-0.04056 -0.0085,-0.017103 -0.03201,-0.023458 -0.04056,-0.040559 -0.0061,-0.012092 0,-0.02704 0,-0.04056 0,-0.01352 0,-0.02704 0,-0.040559 0,-0.067599 0,-0.1351981 0,-0.2027973 0,-0.081119 0,-0.1622377 0,-0.2433566 0,-0.01352 -0.01352,-0.040559 0,-0.040559 0.01352,0 0,0.05408 0,0.040559 0,-0.02704 -0.01209,-0.056934 0,-0.081119 0.0061,-0.012092 0.04056,-0.01352 0.04056,0 0,0.01352 -0.05408,0 -0.04056,0 0.02704,0 0.05408,0 0.08112,0 0.01352,0 0.04056,-0.01352 0.04056,0 0,0.038306 -0.189277,-0.076612 0.04056,0 0.05736,0.019119 0.108159,0.054079 0.162238,0.081119 z"
     id="path4493"
     inkscape:connector-curvature="0" />
  <path
     style="fill:none;stroke:#000000;stroke-width:0.26458332px;stroke-linecap:butt;stroke-linejoin:miter;stroke-opacity:1"
     d="m 98.518874,8.6817407 c 0,-0.054079 0,-0.1081585 0,-0.1622377 0,-0.055653 -0.0213,-0.1313116 0.04056,-0.1622377 0.01209,-0.00605 0.031,0.00956 0.04056,0 0.0096,-0.00956 -0.0096,-0.031 0,-0.04056 0.01913,-0.019119 0.062,0.019119 0.08112,0 0.0096,-0.00956 -0.0096,-0.030999 0,-0.040559 0.0016,-0.00164 0.147341,0 0.162238,0 0.0098,0 0.120374,0.0013 0.121679,0 0.0096,-0.00956 -0.0096,-0.031 0,-0.04056 0.0016,-0.00164 0.147341,0 0.162237,0 0.01352,0 0.02704,0 0.04056,0 0.01352,0 0.04056,-0.01352 0.04056,0 0,0.01352 -0.05408,0 -0.04056,0 0.02704,0 0.05408,0 0.08112,0 0.01352,0 0.031,-0.00956 0.04056,0 0.0096,0.00956 0,0.02704 0,0.04056 0,0.067599 0,0.1351981 0,0.202797 0,0.094639 0,0.1892774 0,0.2839162 0,0.01352 0,0.02704 0,0.040559 0,0.01352 0.01352,0.04056 0,0.04056 -0.01352,0 0,-0.054079 0,-0.04056 0,0.02704 0,0.054079 0,0.081119 0,0.01352 0.0096,0.031 0,0.040559 -0.01913,0.019119 -0.05693,-0.012091 -0.08112,0 -0.01709,0.00855 -0.02347,0.032009 -0.04056,0.04056 -0.01233,0.00617 -0.103412,0 -0.121677,0 -0.09464,0 -0.189277,0 -0.283916,0 -0.02704,0 -0.05408,0 -0.08112,0 -0.01352,0 -0.04056,0.01352 -0.04056,0 0,-0.01352 0.05408,0 0.04056,0 -0.02704,0 -0.05693,0.012091 -0.08112,0 -0.01132,-0.00566 0.0056,-0.1076595 0,-0.1216784 -0.02246,-0.056138 -0.05408,-0.1081585 -0.08112,-0.1622378 z"
     id="path4495"
     inkscape:connector-curvature="0" />
  <path
     style="fill:none;stroke:#000000;stroke-width:0.26458332px;stroke-linecap:butt;stroke-linejoin:miter;stroke-opacity:1"
     d="m 100.7902,8.8034189 c -0.027,-0.054079 -0.0587,-0.1060998 -0.0811,-0.1622377 -0.0101,-0.025106 0.0191,-0.061999 0,-0.081119 -0.01,-0.00956 -0.031,0.00956 -0.0405,0 -0.002,-0.00164 0,-0.1473427 0,-0.1622377 0,-0.01352 0,-0.02704 0,-0.040559 0,-0.01352 -0.0135,-0.04056 0,-0.04056 0.0135,0 0,0.054079 0,0.04056 0,-0.2298369 -0.027,-0.01352 0.0405,-0.081119 0.01,-0.00956 -0.01,-0.031 0,-0.04056 0.002,-0.00183 0.18368,0 0.2028,0 0.0406,0 0.0811,0 0.12168,0 0.0135,0 0.0406,-0.01352 0.0406,0 0,0.01352 -0.0541,0 -0.0406,0 0.0406,0 0.0811,0 0.12168,0 0.01,0 0.12037,-0.0013 0.12168,0 0.01,0.00956 -0.01,0.031 0,0.04056 0.01,0.00956 0.031,-0.00956 0.0406,0 0.01,0.00956 -0.006,0.028467 0,0.040559 0.009,0.017103 0.032,0.023458 0.0406,0.04056 0.006,0.012343 0,0.1034118 0,0.1216781 0,0.02704 0,0.054079 0,0.081119 0,0.01352 0,0.054079 0,0.04056 0,-0.02704 0,-0.1081585 0,-0.081119 0,0.040559 -0.0128,0.0832 0,0.1216782 0.004,0.012827 0.031,-0.00956 0.0406,0 0.01,0.00956 0,0.02704 0,0.04056 0,0.019124 0.002,0.200959 0,0.2027971 -0.01,0.00956 -0.0285,-0.00605 -0.0406,0 -0.0171,0.00855 -0.0235,0.032009 -0.0406,0.040559 -0.0324,0.016224 -0.0892,-0.016224 -0.12168,0 -0.0171,0.00855 -0.0235,0.032009 -0.0406,0.04056 -0.0121,0.00605 -0.027,0 -0.0406,0 -0.0135,0 -0.027,0 -0.0406,0 -0.027,0 -0.0541,0 -0.0811,0 -0.0135,0 -0.0406,0.01352 -0.0406,0 0,-0.01352 0.0541,0 0.0406,0 -0.027,0 -0.0541,0 -0.0811,0 -0.0135,0 -0.0324,0.010816 -0.0406,0 -0.0363,-0.04837 -0.0541,-0.1081588 -0.0811,-0.162238 z"
     id="path4497"
     inkscape:connector-curvature="0" />
  <path
     style="fill:none;stroke:#000000;stroke-width:0.26458332px;stroke-linecap:butt;stroke-linejoin:miter;stroke-opacity:1"
     d="m 102.12867,9.6146078 c 0,-0.081119 0,-0.1622377 0,-0.2433566 0,-0.054079 0,-0.1081585 0,-0.1622377 0,-0.01352 -0.0135,-0.04056 0,-0.04056 0.0135,0 0,0.054079 0,0.04056 0,-0.02704 0,-0.054079 0,-0.081119 0,-0.01352 -0.006,-0.028467 0,-0.040559 0.009,-0.017103 0.027,-0.02704 0.0405,-0.040559 0.0135,-0.01352 0.0235,-0.032009 0.0406,-0.04056 0.0121,-0.00605 0.031,0.00956 0.0405,0 0.01,-0.00956 -0.01,-0.030999 0,-0.040559 0.002,-0.00183 0.18368,0 0.2028,0 0.0811,0 0.16224,0 0.24336,0 0.0135,0 0.0406,-0.01352 0.0406,0 0,0.01352 -0.0406,-0.01352 -0.0406,0 0,0.019119 0.032,0.023458 0.0406,0.040559 0.011,0.022003 -0.0111,0.1511398 0,0.1622377 0.01,0.00956 0.031,-0.00956 0.0406,0 0.002,0.00164 0,0.147343 0,0.1622377 0,0.054079 0,0.1081585 0,0.1622378 0,0.01352 0.0135,0.04056 0,0.04056 -0.0135,0 0,-0.054079 0,-0.04056 0,0.02704 0.0121,0.056934 0,0.081119 -0.006,0.012092 -0.031,-0.00956 -0.0406,0 -0.01,0.00956 0.01,0.031 0,0.04056 -0.01,0.00956 -0.027,0 -0.0406,0 -0.0946,0 -0.18928,0 -0.28392,0 -0.027,0 -0.0541,0 -0.0811,0 -0.0135,0 -0.0406,0.01352 -0.0406,0 0,-0.01352 0.0541,0 0.0406,0 -0.0676,0 -0.13519,0 -0.20279,0 z"
     id="path4499"
     inkscape:connector-curvature="0" />
  <path
     style="fill:none;stroke:#000000;stroke-width:0.26458332px;stroke-linecap:butt;stroke-linejoin:miter;stroke-opacity:1"
     d="m 103.18321,10.669153 c 0,-0.121678 0,-0.243357 0,-0.365035 0,-0.01352 0,-0.02704 0,-0.04056 0,-0.01352 -0.006,-0.02847 0,-0.04056 0.009,-0.0171 0.032,-0.02346 0.0406,-0.04056 0.0223,-0.0446 -0.0391,-0.08187 0.0406,-0.121678 0.0121,-0.006 0.0406,-0.01352 0.0406,0 0,0.01352 -0.0541,0 -0.0406,0 0.0811,0 0.16224,0 0.24336,0 0.0191,0 0.20095,-0.0018 0.20279,0 0.01,0.0096 0,0.02704 0,0.04056 0,0.08112 0,0.162238 0,0.243357 0,0.121678 0,0.243356 0,0.365035 0,0.01352 0,0.02704 0,0.04056 0,0.01352 0.01,0.031 0,0.04056 -0.01,0.0096 -0.027,0 -0.0406,0 -0.0135,0 -0.027,0 -0.0406,0 -0.0676,0 -0.13519,0 -0.20279,0 -0.0135,0 -0.027,0 -0.0406,0 -0.0135,0 -0.029,0.007 -0.0406,0 -0.058,-0.03478 -0.10816,-0.08112 -0.16224,-0.121678 z"
     id="path4501"
     inkscape:connector-curvature="0" />
  <path
     style="fill:none;stroke:#000000;stroke-width:0.26458332px;stroke-linecap:butt;stroke-linejoin:miter;stroke-opacity:1"
     d="m 104.03496,12.129293 c 0.20766,0.03647 0.0542,-0.148912 0.0811,-0.202797 0.009,-0.0171 0.027,-0.02704 0.0406,-0.04056 0.0135,-0.01352 0.0235,-0.03201 0.0406,-0.04056 0.0242,-0.01209 0.062,0.01912 0.0811,0 0,-0.108159 -0.0135,0.01352 0.0406,-0.04056 0.01,-0.0096 -0.01,-0.031 0,-0.04056 0.01,-0.0096 0.027,0 0.0406,0 0.0135,0 0.0271,0 0.0406,0 0.0946,0 0.18927,0 0.28391,0 0.0135,0 0.031,-0.0096 0.0406,0 0.01,0.0096 -0.01,0.031 0,0.04056 0.01,0.0096 0.031,-0.0096 0.0406,0 0.01,0.0096 -0.006,0.02847 0,0.04056 0.009,0.0171 0.032,0.02346 0.0406,0.04056 0.005,0.01067 0,0.141029 0,0.162238 0,0.08112 0,0.162238 0,0.243357 0,0.01352 0.01,0.031 0,0.04056 -0.0191,0.01912 -0.062,-0.01912 -0.0811,0 -0.01,0.0096 -0.0135,0.04056 0,0.04056 0.0191,0 0.0597,-0.04056 0.0406,-0.04056 -0.0302,0 -0.0524,0.031 -0.0811,0.04056 -0.0128,0.0043 -0.031,-0.0096 -0.0406,0 -0.01,0.0096 0.006,0.02847 0,0.04056 -0.0448,0.08968 -0.0252,0.01259 -0.0811,0.04056 -0.0171,0.0086 -0.0235,0.03201 -0.0406,0.04056 -0.0121,0.006 -0.027,0 -0.0406,0 -0.0135,0 -0.027,0 -0.0406,0 -0.0135,0 -0.027,0 -0.0405,0 -0.0135,0 -0.0406,0.01352 -0.0406,0 0,-0.01212 0.13452,0.0267 0,-0.04056 -0.0121,-0.006 -0.031,0.0096 -0.0406,0 -0.01,-0.0096 0.01,-0.031 0,-0.04056 -0.0191,-0.01912 -0.062,0.01912 -0.0811,0 -0.001,-0.0013 0,-0.111841 0,-0.121678 0,-0.01352 0.01,-0.031 0,-0.04056 -0.01,-0.0096 -0.0406,0.01352 -0.0406,0 0,-0.01352 0.0406,0.01352 0.0406,0 0,-0.01912 -0.0242,-0.03072 -0.0406,-0.04056 -0.0519,-0.03111 -0.10816,-0.05408 -0.16224,-0.08112 z"
     id="path4503"
     inkscape:connector-curvature="0" />
  <path
     style="fill:none;stroke:#000000;stroke-width:0.26458332px;stroke-linecap:butt;stroke-linejoin:miter;stroke-opacity:1"
     d="m 104.52167,13.711111 c 0.0541,-0.02704 0.1061,-0.05866 0.16224,-0.08112 0.0251,-0.01004 0.0541,0 0.0811,0 0.0811,0 0.16224,0 0.24336,0 0.027,0 0.0541,0 0.0811,0 0.0135,0 0.0541,0 0.0406,0 -0.027,0 -0.0811,-0.02704 -0.0811,0 0,0.03023 0.0597,0.01918 0.0811,0.04056 0.01,0.0096 -0.01,0.031 0,0.04056 0.01,0.0096 0.031,-0.0096 0.0405,0 0.01,0.0096 0,0.02704 0,0.04056 0,0.08112 0,0.162238 0,0.243357 0,0.0676 0,0.135198 0,0.202797 0,0.01352 0.01,0.031 0,0.04056 -0.01,0.0096 -0.031,-0.0096 -0.0405,0 -0.01,0.0096 0,0.02704 0,0.04056 -0.0135,0 -0.031,-0.0096 -0.0406,0 -0.01,0.0096 0.01,0.031 0,0.04056 -0.0271,0.02705 -0.0541,-0.02705 -0.0811,0 -0.01,0.0096 0.01,0.031 0,0.04056 -0.001,0.0013 -0.11185,0 -0.12168,0 -0.0946,0 -0.18928,0 -0.28392,0 -0.0135,0 -0.031,0.0096 -0.0406,0 -0.01,-0.0096 0.01,-0.031 0,-0.04056 -0.0839,-0.08392 0.003,0.128239 -0.0811,-0.04056 -0.005,-0.01066 0,-0.141028 0,-0.162238 0,-0.226049 -0.0193,-0.166286 0.0406,-0.405594 z"
     id="path4505"
     inkscape:connector-curvature="0" />
  <path
     style="fill:none;stroke:#000000;stroke-width:0.26458332px;stroke-linecap:butt;stroke-linejoin:miter;stroke-opacity:1"
     d="m 103.87272,15.130691 c 0.0541,-0.04056 0.10816,-0.08112 0.16224,-0.121678 0,-0.01352 -0.01,-0.031 0,-0.04056 0.002,-0.0018 0.18367,0 0.2028,0 0.0541,0 0.10815,0 0.16224,0 0.0135,0 0.0405,-0.01352 0.0405,0 0,0.01352 -0.0541,0 -0.0405,0 0.027,0 0.0569,-0.01209 0.0811,0 0.0121,0.006 -0.01,0.031 0,0.04056 0.01,0.0096 0.031,-0.0096 0.0406,0 0.01,0.0096 0,0.02704 0,0.04056 0,0.09464 0,0.189277 0,0.283916 0,0.01352 0,0.02704 0,0.04056 0,0.01352 0.0135,0.04056 0,0.04056 -0.0135,0 0,-0.05408 0,-0.04056 0,0.02704 0,0.05408 0,0.08112 0,0.01352 0.01,0.031 0,0.04056 -0.01,0.0096 -0.031,-0.0096 -0.0406,0 -0.01,0.0096 0.01,0.031 0,0.04056 -0.01,0.0096 -0.0285,-0.006 -0.0406,0 -0.0171,0.0086 -0.0235,0.03201 -0.0405,0.04056 -0.0121,0.006 -0.027,0 -0.0406,0 -0.0135,0 -0.027,0 -0.0406,0 -0.0135,0 -0.0406,0.01352 -0.0406,0 0,-0.01352 0.0541,0 0.0406,0 -0.027,0 -0.0541,0 -0.0811,0 -0.0135,0 -0.0406,0.01352 -0.0406,0 0,-0.01352 0.0541,0 0.0406,0 -0.027,0 -0.0541,0 -0.0811,0 -0.0135,0 -0.0406,0.01352 -0.0406,0 0,-0.01352 0.0541,0 0.0406,0 -0.0406,0 -0.0811,0 -0.12168,0 -0.0135,0 -0.0406,0.01352 -0.0406,0 0,-0.01352 0.0406,0.01352 0.0406,0 0,-0.01912 -0.032,-0.02346 -0.0406,-0.04056 -0.006,-0.01209 -0.0135,-0.04056 0,-0.04056 0.0135,0 0,0.05408 0,0.04056 0,-0.02704 0,-0.05408 0,-0.08112 0,-0.01352 0.01,-0.031 0,-0.04056 -0.01,-0.0096 -0.031,0.0096 -0.0406,0 -0.01,-0.0096 0.01,-0.031 0,-0.04056 -0.01,-0.0096 -0.031,0.0096 -0.0406,0 -0.004,-0.0039 0.003,-0.06471 0,-0.08112 -0.0109,-0.05466 -0.027,-0.108158 -0.0406,-0.162238 z"
     id="path4507"
     inkscape:connector-curvature="0" />
  <path
     style="fill:none;stroke:#000000;stroke-width:0.26458332px;stroke-linecap:butt;stroke-linejoin:miter;stroke-opacity:1"
     d="m 102.61538,15.576845 c 0.0541,-0.02704 0.10816,-0.05408 0.16224,-0.08112 0,-0.01352 -0.01,-0.031 0,-0.04056 0.0191,-0.01912 0.062,0.01912 0.0811,0 0.01,-0.0096 -0.01,-0.031 0,-0.04056 10e-4,-0.0013 0.11184,0 0.12167,0 0.027,0 0.0541,0 0.0811,0 0.0135,0 0.0406,-0.01352 0.0406,0 0,0.03831 -0.18928,-0.07661 0.0406,0 0.0807,0.0269 0.0189,0.03786 0.0406,0.08112 0.009,0.0171 0.032,0.02346 0.0406,0.04056 0.0121,0.02418 -0.0191,0.062 0,0.08112 0.01,0.0096 0.031,-0.0096 0.0406,0 0.01,0.0096 0,0.02704 0,0.04056 0,0.01352 0,0.02704 0,0.04056 0,0.02704 0,0.05408 0,0.08112 0,0.01352 0.0135,0.04056 0,0.04056 -0.0135,0 0,-0.05408 0,-0.04056 0,0.02704 0.0121,0.05693 0,0.08112 -0.006,0.01209 -0.031,-0.0096 -0.0406,0 -0.01,0.0096 0.01,0.031 0,0.04056 -0.01,0.0096 -0.031,-0.0096 -0.0406,0 -0.01,0.0096 0.01,0.031 0,0.04056 -0.01,0.0098 -0.15248,-0.0098 -0.16224,0 -0.01,0.0096 0.0135,0.04056 0,0.04056 -0.0135,0 0.0135,-0.04056 0,-0.04056 -0.0131,0 -0.0586,0.06985 -0.0811,0.08112 -0.0121,0.006 -0.0406,0.01352 -0.0406,0 0,-0.01352 0.0541,0 0.0406,0 -0.0541,0 -0.10816,0 -0.16224,0 -0.0135,0 -0.031,0.0096 -0.0406,0 -0.01,-0.0096 0.01,-0.031 0,-0.04056 -0.01,-0.0096 -0.031,0.0096 -0.0406,0 -0.0203,-0.02028 0.0203,-0.101399 0,-0.121679 -0.0191,-0.01912 -0.062,0.01912 -0.0811,0 -0.01,-0.0096 -0.0135,-0.04056 0,-0.04056 0.0135,0 0,0.05408 0,0.04056 0,-0.09464 0,-0.189277 0,-0.283916 z"
     id="path4509"
     inkscape:connector-curvature="0" />
  <path
     style="fill:none;stroke:#000000;stroke-width:0.26458332px;stroke-linecap:butt;stroke-linejoin:miter;stroke-opacity:1"
     d="m 96.490904,10.385237 c -0.173053,-0.12979 -0.09464,-0.121678 -0.202798,-0.121678 -0.01352,0 -0.031,-0.0096 -0.04056,0 -0.01913,0.01912 0.01913,0.062 0,0.08112 -0.0096,0.0096 -0.031,-0.0096 -0.04056,0 -0.0096,0.0096 0.0061,0.02847 0,0.04056 -0.0085,0.0171 -0.03201,0.02346 -0.04056,0.04056 -0.0061,0.01209 0.0096,0.031 0,0.04056 -0.0096,0.0096 -0.031,-0.0096 -0.04056,0 -0.01913,0.01912 0.01913,0.062 0,0.08112 -0.0096,0.0096 -0.031,-0.0096 -0.04056,0 -0.0096,0.0096 0,0.02704 0,0.04056 0,0.01352 0,0.02704 0,0.04056 0,0.04056 0,0.08112 0,0.121678 0,0.01352 0.01352,0.04056 0,0.04056 -0.01352,0 0,-0.05408 0,-0.04056 0,0.02704 0,0.05408 0,0.08112 0,0.01352 0.01352,0.04056 0,0.04056 -0.01352,0 0,-0.05408 0,-0.04056 0,0.02704 -0.01209,0.05693 0,0.08112 0.0061,0.01209 0.02704,0 0.04056,0 0.01352,0 0.02704,0 0.04056,0 0.02875,0 0.232871,-0.0052 0.243359,0 0.01709,0.0086 0.02347,0.03201 0.04056,0.04056 0.01209,0.006 0.02704,0 0.04056,0 0.01352,0 0.02704,0 0.04056,0 0.01352,0 0.02704,0 0.04056,0 0.01352,0 0.04056,-0.01352 0.04056,0 0,0.01352 -0.05408,0 -0.04056,0 0.02704,0 0.05408,0 0.08112,0 0.01352,0 0.031,0.0096 0.04056,0 0.0096,-0.0096 0,-0.02704 0,-0.04056 0,-0.01352 0,-0.02704 0,-0.04056 0,-0.108158 0,-0.216317 0,-0.324475 0,-0.01352 0,-0.02704 0,-0.04056 0,-0.01352 0.0096,-0.031 0,-0.04056 -0.0096,-0.0096 -0.02801,0.005 -0.04056,0 -0.05614,-0.02245 -0.108159,-0.05408 -0.162237,-0.08112 z"
     id="path4511"
     inkscape:connector-curvature="0" />
  <path
     style="fill:none;stroke:#000000;stroke-width:0.26458332px;stroke-linecap:butt;stroke-linejoin:miter;stroke-opacity:1"
     d="m 96.73426,11.804817 c -0.0964,-0.04115 -0.153289,-0.04056 -0.243356,-0.04056 -0.01352,0 -0.02847,-0.006 -0.04056,0 -0.01709,0.0086 -0.03201,0.02346 -0.04056,0.04056 -0.01209,0.02419 0.01913,0.062 0,0.08112 -0.04056,0.04055 -0.04057,-0.04055 -0.08112,0 -0.0096,0.0096 0,0.02704 0,0.04056 0,0.0676 0,0.135198 0,0.202797 0,0.01352 0.0096,0.031 0,0.04056 -0.0096,0.0096 -0.031,-0.0096 -0.04056,0 -0.0096,0.0096 0,0.02704 0,0.04056 0,0.0098 -0.0013,0.120374 0,0.121678 0.0096,0.0096 0.02704,0 0.04056,0 0.05408,0 0.108156,0 0.162237,0 0.01352,0 0.04056,-0.01352 0.04056,0 0,0.01352 -0.04056,-0.01352 -0.04056,0 0,0.0844 0.05688,0.01632 0.08112,0.04056 0.0096,0.0096 -0.0096,0.031 0,0.04056 0.006,0.006 0.121679,-0.0048 0.121679,0 0,0.01352 -0.05408,0 -0.04056,0 0.04056,0 0.08112,0 0.12168,0 0.01352,0 0.04056,-0.01352 0.04056,0 0,0.01352 -0.04056,0.01352 -0.04056,0 0,-0.01912 0.03201,-0.02346 0.04056,-0.04056 0.0061,-0.01209 -0.0096,-0.031 0,-0.04056 0.0096,-0.0096 0.031,0.0096 0.04056,0 0.0096,-0.0096 0,-0.02704 0,-0.04056 0,-0.01352 0,-0.02704 0,-0.04056 0,-0.149868 0,-0.108931 0,-0.202797 0,-0.01352 0,-0.02704 0,-0.04056 0,-0.01352 0.007,-0.02897 0,-0.04056 -0.03478,-0.05797 -0.08112,-0.108158 -0.12168,-0.162238 z"
     id="path4513"
     inkscape:connector-curvature="0" />
  <path
     style="fill:none;stroke:#000000;stroke-width:0.26458332px;stroke-linecap:butt;stroke-linejoin:miter;stroke-opacity:1"
     d="m 96.815379,13.305517 c -0.03905,0.120924 -0.142336,-0.03023 -0.202796,0 -0.01709,0.0086 -0.02704,0.02704 -0.04056,0.04056 -0.01352,0.01352 -0.02704,0.05408 -0.04056,0.04056 -0.01352,-0.01352 0.04056,-0.05968 0.04056,-0.04056 0,0.03023 -0.031,0.05244 -0.04056,0.08112 -0.0085,0.02565 0.01913,0.062 0,0.08112 -0.0096,0.0096 -0.031,-0.0096 -0.04056,0 -0.01913,0.01912 0.01913,0.062 0,0.08112 -0.0096,0.0096 -0.031,-0.0096 -0.04056,0 -0.0096,0.0096 0,0.02704 0,0.04056 0,0.01352 0,0.02704 0,0.04056 0,0.153224 0,-0.180264 0,0.08112 0,0.01352 0,0.02704 0,0.04056 0,0.01352 0.01352,0.04056 0,0.04056 -0.01352,0 0,-0.05408 0,-0.04056 0,0.02704 -0.01209,0.05693 0,0.08112 0.0061,0.01209 0.031,-0.0096 0.04056,0 0.0096,0.0096 -0.0096,0.031 0,0.04056 0.01257,0.01256 0.190238,-0.01256 0.202798,0 0.0096,0.0096 -0.0096,0.031 0,0.04056 0.0016,0.0016 0.147341,0 0.162237,0 0.01352,0 0.02704,0 0.04056,0 0.01352,0 0.04056,-0.01352 0.04056,0 0,0.01352 -0.04056,0.01352 -0.04056,0 0,-0.01912 0.03201,-0.02346 0.04056,-0.04056 0.0061,-0.01209 -0.0096,-0.031 0,-0.04056 0.0096,-0.0096 0.031,0.0096 0.04056,0 0.01913,-0.01912 -0.01913,-0.062 0,-0.08112 0.0096,-0.0096 0.02704,0 0.04056,0 0,-0.01352 -0.0061,-0.02847 0,-0.04056 0.0085,-0.0171 0.02704,-0.05408 0.04056,-0.04056 0.01352,0.01352 -0.04056,0.05968 -0.04056,0.04056 0,-0.03023 0.031,-0.05244 0.04056,-0.08112 0.0043,-0.01283 0,-0.02704 0,-0.04056 0,-0.01352 0,-0.02704 0,-0.04056 0,-0.01352 -0.01352,-0.04056 0,-0.04056 0.01352,0 0,0.05408 0,0.04056 0,-0.02704 0,-0.05408 0,-0.08112 0,-0.01352 0.0096,-0.031 0,-0.04056 -0.0096,-0.0096 -0.02847,0.006 -0.04056,0 -0.01709,-0.0086 -0.02564,-0.02862 -0.04056,-0.04056 -0.05279,-0.04223 -0.108159,-0.08112 -0.162239,-0.121678 z"
     id="path4515"
     inkscape:connector-curvature="0" />
  <path
     style="fill:none;stroke:#000000;stroke-width:0.26458332px;stroke-linecap:butt;stroke-linejoin:miter;stroke-opacity:1"
     d="m 97.46433,14.725097 c -0.137438,-0.126588 -0.120462,-0.121678 -0.243356,-0.121678 -0.01352,0 -0.031,-0.0096 -0.04056,0 -0.0096,0.0096 0.01352,0.04056 0,0.04056 -0.01352,0 0,-0.05408 0,-0.04056 0,0.02704 0.01209,0.05693 0,0.08112 -0.0061,0.01209 -0.031,-0.0096 -0.04056,0 -0.0096,0.0096 0,0.02704 0,0.04056 0,0.01352 0,0.02704 0,0.04056 0,0.108159 0,0.216317 0,0.324476 0,0.01352 -0.0096,0.031 0,0.04056 0.0096,0.0096 0.031,-0.0096 0.04056,0 0.0096,0.0096 -0.0096,0.031 0,0.04056 0.0019,0.0018 0.183673,0 0.202797,0 0.02704,0 0.05408,0 0.08112,0 0.01352,0 0.04056,-0.01352 0.04056,0 0,0.01352 -0.05408,0 -0.04056,0 0.02704,0 0.05408,0 0.08112,0 0.01352,0 0.04056,-0.01352 0.04056,0 0,0.01352 -0.05408,0 -0.04056,0 0.02704,0 0.05408,0 0.08112,0 0.01352,0 0.031,0.0096 0.04056,0 0.0096,-0.0096 0,-0.02704 0,-0.04056 0,-0.05408 0,-0.108158 0,-0.162237 0,-0.01352 -0.01352,-0.04056 0,-0.04056 0.01352,0 0,0.05408 0,0.04056 0,-0.04056 0,-0.08112 0,-0.121679 0,-0.0098 0.0013,-0.120374 0,-0.121678 -0.0096,-0.0096 -0.02704,0 -0.04056,0 -0.05408,0 -0.108156,0 -0.162237,0 z"
     id="path4517"
     inkscape:connector-curvature="0" />
  <path
     style="fill:#ffffff;fill-opacity:1;stroke:#000000;stroke-width:0;stroke-linecap:butt;stroke-linejoin:miter;stroke-miterlimit:4;stroke-dasharray:none;stroke-opacity:1"
     d="m 100.83039,12.737355 c -0.22009,-0.04252 0.044,-0.189617 0,-0.270164 -0.0104,-0.01899 -0.0389,-0.02604 -0.0492,-0.04503 -0.008,-0.01342 0.008,-0.0316 0,-0.04503 -0.0104,-0.01899 -0.0389,-0.02604 -0.0493,-0.04503 -0.008,-0.01342 0.0116,-0.03441 0,-0.04503 -0.0116,-0.01061 -0.0377,0.01061 -0.0493,0 -0.0232,-0.02123 0.0232,-0.06883 0,-0.09005 -0.0246,-0.02251 -0.12304,0.02251 -0.14765,0 -0.0116,-0.01061 0.0116,-0.03441 0,-0.04503 -0.0116,-0.01061 -0.0346,0.0068 -0.0493,0 -0.0208,-0.0095 -0.0285,-0.03554 -0.0493,-0.04503 -0.0293,-0.01342 -0.0691,0.01342 -0.0984,0 -0.0208,-0.0095 -0.0285,-0.03554 -0.0493,-0.04503 -0.0147,-0.0068 -0.0328,0 -0.0493,0 -0.0164,0 -0.0328,0 -0.0493,0 -0.0984,0 -0.196865,0 -0.295298,0 -0.09843,0 -0.196862,0 -0.295292,0 -0.01641,0 -0.03762,-0.01061 -0.04922,0 -0.131487,0.120295 0.131484,-0.03024 0,0.09005 -0.0116,0.01061 -0.03762,-0.01061 -0.04922,0 -0.0096,0.0088 0.009,0.208695 0,0.225137 -0.0073,0.01342 -0.04188,-0.01342 -0.04922,0 -0.02082,0.03807 0.01753,0.177015 0,0.225138 -0.0116,0.03184 -0.03762,0.05822 -0.04922,0.09005 -0.0065,0.01788 0.0063,0.18011 0,0.18011 -0.01641,0 0,-0.06004 0,-0.04503 0,0.04503 0,0.09006 0,0.135083 0,0.09005 0,0.18011 0,0.270165 0,0.03192 -0.0063,0.258523 0,0.270164 0.01037,0.01899 0.02846,0.03554 0.04922,0.04503 0.02934,0.01342 0.07523,-0.02123 0.09843,0 0.101829,0.09316 -0.15561,-0.0036 0.04922,0.09005 0.03937,0.01801 0.108273,-0.01801 0.147647,0 0.02075,0.0095 0.02846,0.03554 0.04922,0.04503 0.01779,0.0081 0.211843,0 0.246073,0 0.0164,0 0.0376,-0.01061 0.0493,0 0.0116,0.01061 -0.0116,0.03441 0,0.04503 0.0116,0.01061 0.0328,0 0.0493,0 0.0164,0 0.0328,0 0.0493,0 0.0984,0 0.19687,0 0.2953,0 0.0221,0 0.13267,0.0068 0.14765,0 0.0208,-0.0095 0.0285,-0.03554 0.0493,-0.04503 0.0147,-0.0068 0.0346,0.0068 0.0493,0 0.0208,-0.0095 0.0285,-0.03554 0.0493,-0.04503 0.0147,-0.0068 0.0346,0.0068 0.0492,0 0.0208,-0.0095 0.0285,-0.03554 0.0493,-0.04503 0.0294,-0.01342 0.0752,0.02123 0.0984,0 0.0116,-0.01061 -0.008,-0.0316 0,-0.04503 0.0104,-0.01899 0.0389,-0.02604 0.0493,-0.04503 0.008,-0.01342 -0.0116,-0.03441 0,-0.04503 0.0116,-0.01061 0.0376,0.01061 0.0493,0 0.0116,-0.01061 -0.008,-0.0316 0,-0.04503 0.0104,-0.01899 0.0389,-0.02604 0.0493,-0.04503 0.007,-0.01184 0,-0.156564 0,-0.18011 0,-0.02354 0.007,-0.168271 0,-0.18011 -0.0104,-0.01898 -0.0328,-0.03002 -0.0493,-0.04503 -0.0164,-0.01501 -0.0328,-0.03002 -0.0493,-0.04503 -0.0656,-0.06004 -0.13125,-0.120073 -0.19687,-0.180109 z"
     id="path4525"
     inkscape:connector-curvature="0" />
</svg>
