<?xml version="1.0" encoding="UTF-8" standalone="no"?>
<!-- Created with Inkscape (http://www.inkscape.org/) -->

<svg
   xmlns:dc="http://purl.org/dc/elements/1.1/"
   xmlns:cc="http://creativecommons.org/ns#"
   xmlns:rdf="http://www.w3.org/1999/02/22-rdf-syntax-ns#"
   xmlns:svg="http://www.w3.org/2000/svg"
   xmlns="http://www.w3.org/2000/svg"
   xmlns:sodipodi="http://sodipodi.sourceforge.net/DTD/sodipodi-0.dtd"
   xmlns:inkscape="http://www.inkscape.org/namespaces/inkscape"
   width="108.92752mm"
   height="17.627386mm"
   viewBox="0 0 108.92752 17.627386"
   version="1.1"
   id="svg8"
   inkscape:version="0.92.1 r15371"
   sodipodi:docname="cmaranica.svg">
  <defs
     id="defs2" />
  <sodipodi:namedview
     id="base"
     pagecolor="#ffffff"
     bordercolor="#666666"
     borderopacity="1.0"
     inkscape:pageopacity="0.0"
     inkscape:pageshadow="2"
     inkscape:zoom="0.98994949"
     inkscape:cx="153.23643"
     inkscape:cy="146.02757"
     inkscape:document-units="mm"
     inkscape:current-layer="layer1"
     showgrid="false"
     fit-margin-top="0"
     fit-margin-left="0"
     fit-margin-right="0"
     fit-margin-bottom="0"
     inkscape:window-width="1920"
     inkscape:window-height="1005"
     inkscape:window-x="-9"
     inkscape:window-y="-9"
     inkscape:window-maximized="1"
     objecttolerance="1"
     guidetolerance="1"
     gridtolerance="1" />
  <metadata
     id="metadata5">
    <rdf:RDF>
      <cc:Work
         rdf:about="">
        <dc:format>image/svg+xml</dc:format>
        <dc:type
           rdf:resource="http://purl.org/dc/dcmitype/StillImage" />
        <dc:title></dc:title>
      </cc:Work>
    </rdf:RDF>
  </metadata>
  <g
     inkscape:label="Layer 1"
     inkscape:groupmode="layer"
     id="layer1"
     transform="translate(-70.843802,-62.581788)">
    <path
       style="fill:none;stroke:#000000;stroke-width:0.5291667;stroke-linecap:butt;stroke-linejoin:miter;stroke-miterlimit:4;stroke-dasharray:none;stroke-opacity:1"
       d="m 46.657596,76.182527 c 0,-1.2229 0,-2.4458 0,-3.668698 0,-0.193625 -0.0299,-0.79756 0,-0.917175 0.01499,-0.05992 0.118912,-0.07046 0.131024,-0.131025 0.03426,-0.171308 0,-0.3494 0,-0.5241 0,-0.131025 0,-0.262049 0,-0.393075 0,-0.1747 -0.02471,-0.351155 0,-0.524099 0.01953,-0.136725 0.10394,-0.257646 0.131026,-0.393075 0.01713,-0.08565 0,-0.1747 0,-0.26205 0,-0.305725 0,-0.611449 0,-0.917174 0,-0.08735 -0.02119,-0.177308 0,-0.26205 0.02368,-0.09474 0.100141,-0.169402 0.131024,-0.26205 0.01381,-0.04143 0,-0.08735 0,-0.131025 0,-0.131024 -0.02569,-0.264594 0,-0.393076 0.01915,-0.09576 0.100142,-0.1694 0.131025,-0.262049 0.01381,-0.04143 -0.01953,-0.09196 0,-0.131024 0.02762,-0.05524 0.103403,-0.07578 0.131024,-0.131025 0.04117,-0.08235 -0.04118,-0.441749 0,-0.5241 0.02762,-0.05524 0.103404,-0.07578 0.131026,-0.131025 0.01953,-0.03907 -0.01953,-0.09196 0,-0.131025 0.05524,-0.11049 0.206804,-0.151561 0.26205,-0.262049 0.02915,-0.05831 -0.01997,-0.464171 0,-0.524101 0.01953,-0.0586 0.103402,-0.07578 0.131025,-0.131024 0.01953,-0.03907 0,-0.08735 0,-0.131026 0,-0.08735 -0.02762,-0.179183 0,-0.262049 0.01953,-0.0586 0.111492,-0.07243 0.131024,-0.131026 0.02762,-0.08287 0,-0.1747 0,-0.26205 0,-0.04367 -0.01953,-0.09196 0,-0.131023 0.02762,-0.05524 0.103402,-0.07578 0.131026,-0.131026 0.03554,-0.07108 -0.03585,-0.488249 0,-0.524099 0.03088,-0.03088 0.100142,-0.03088 0.131024,0 0.03089,0.03088 -0.01381,0.08959 0,0.131024 0.03089,0.09265 0.107338,0.167305 0.131026,0.262051 0.02119,0.08474 0,0.1747 0,0.26205 0.08735,0.218373 0.187674,0.431996 0.262049,0.655125 0.04143,0.1243 -0.03178,0.26596 0,0.393073 0.02369,0.09474 0.100143,0.169402 0.131026,0.26205 0.01381,0.04143 0,0.08735 0,0.131025 0,0.131026 -0.0257,0.264594 0,0.393075 0.01916,0.09577 0.10014,0.169401 0.131023,0.26205 0.01381,0.04143 -0.01381,0.08959 0,0.131024 0.06177,0.185299 0.200286,0.338802 0.26205,0.524101 0.01381,0.04143 -0.01953,0.09196 0,0.131024 0.02762,0.05525 0.103404,0.07578 0.131026,0.131026 0.01953,0.03907 -0.01953,0.09196 0,0.131023 0.02762,0.05524 0.103402,0.07578 0.131026,0.131026 0.01953,0.03907 -0.01953,0.09196 0,0.131026 0.02762,0.05524 0.09676,0.07963 0.131023,0.131024 0.05418,0.08126 0.07685,0.180791 0.131026,0.262049 0.06853,0.102784 0.206805,0.151561 0.26205,0.26205 0.01953,0.03907 -0.01953,0.09196 0,0.131026 0.272646,0.545295 -0.009,-0.140071 0.262049,0.131025 0.06177,0.06177 -0.03907,0.183921 0,0.26205 0.150804,0.301606 0.153697,-0.05712 0.393076,0.26205 0.08287,0.11049 0.07973,0.264839 0.131024,0.393075 0.07254,0.181349 0.200285,0.338802 0.262049,0.524099 0.02762,0.08287 -0.02762,0.179183 0,0.262049 0.03089,0.09265 0.100143,0.169401 0.131026,0.26205 0.08068,0.242032 -0.199932,0.06212 0.131026,0.393075 0.03088,0.03089 0.10014,-0.03088 0.131024,0 0.06177,0.06177 -0.03907,0.183922 0,0.26205 0.272646,0.545295 -0.009,-0.140071 0.262049,0.131026 0.03089,0.03088 -0.01953,0.09196 0,0.131024 0.02762,0.05524 0.103402,0.07578 0.131026,0.131025 0.01953,0.03907 -0.03089,0.100141 0,0.131024 0.03088,0.03088 0.100143,-0.03089 0.131023,0 0.06906,0.06905 0.06197,0.192994 0.131026,0.26205 0.03089,0.03089 0.100143,-0.03088 0.131026,0 0.03088,0.03089 -0.03089,0.100142 0,0.131026 0.271095,0.271094 -0.0106,-0.41427 0.262049,0.131025 0.01953,0.03906 -0.03088,0.100141 0,0.131024 0.03089,0.03088 0.111492,-0.03907 0.131024,0 0.03907,0.07813 -0.02119,0.177308 0,0.26205 0.02369,0.09474 0.08735,0.174699 0.131026,0.262049 0.04368,0.08735 0.06197,0.192994 0.131024,0.262052 0.06906,0.06905 0.192994,0.06197 0.262051,0.131024 0.06906,0.06905 0.08735,0.174699 0.131024,0.262049 0.04368,0.08735 0.100143,0.169403 0.131026,0.26205 0.01381,0.04143 -0.01953,0.09196 0,0.131026 0.02762,0.05524 0.111492,0.07243 0.131024,0.131025 0.02762,0.08287 -0.02762,0.179181 0,0.26205 0.136323,0.40897 0.08735,-0.04368 0.262049,0.131024 0.03089,0.03088 -0.01953,0.09196 0,0.131025 0.135342,0.27068 0.213073,-0.008 0.393076,0.26205 0.07979,0.11969 0.11184,0.31797 0.262049,0.393075 0.03907,0.01953 0.100143,-0.03089 0.131026,0 0.06177,0.06177 -0.06177,0.200284 0,0.26205 0.06177,0.06177 0.200284,-0.06177 0.262049,0 0.03089,0.03089 -0.03088,0.100142 0,0.131024 0.03089,0.03088 0.08735,0 0.131027,0 0.04367,0 0.08735,0 0.131023,0 0.04368,0 0.1747,0 0.131026,0 -0.08735,0 -0.262049,0.08735 -0.262049,0 0,-0.09766 0.192993,-0.06197 0.262049,-0.131024 5.5e-4,-7.63e-4 -0.0011,-0.388031 0,-0.393076 0.02709,-0.135429 0.108318,-0.256841 0.131024,-0.393075 0.0359,-0.215402 -0.04283,-0.44099 0,-0.655123 0.02709,-0.135431 0.10832,-0.256842 0.131025,-0.393075 0.02154,-0.129243 0,-0.26205 0,-0.393075 0,-0.04367 -0.01059,-0.08865 0,-0.131024 0.0335,-0.13399 0.103938,-0.257646 0.131025,-0.393075 0.03426,-0.171308 0,-0.3494 0,-0.5241 0,-0.349401 0,-0.6988 0,-1.0482 0,-0.26205 0,-0.524099 0,-0.786148 0,-1.3976 0,-2.7952 0,-4.192799 0,-0.393074 0,-0.78615 0,-1.179225 0,-0.09287 -0.01693,-0.752272 0,-0.786148 0.02762,-0.05524 0.08735,-0.08735 0.131025,-0.131026"
       id="path4485"
       inkscape:connector-curvature="0" />
    <path
       style="fill:none;stroke:#000000;stroke-width:0.5291667;stroke-linecap:butt;stroke-linejoin:miter;stroke-miterlimit:4;stroke-dasharray:none;stroke-opacity:1"
       d="m 44.954271,72.382803 c 0.579167,-0.138099 1.139606,-0.336194 1.703325,-0.524099 0.131024,-0.04368 0.266129,-0.07662 0.393074,-0.131026 0.179527,-0.07694 0.349399,-0.174699 0.5241,-0.262049 0.08735,-0.04368 0.169401,-0.100143 0.26205,-0.131024 1.595515,-0.531841 -0.134584,0.05312 0.786149,-0.131026 0.13543,-0.02709 0.259087,-0.09753 0.393076,-0.131026 0.04237,-0.01059 0.08959,0.01381 0.131023,0 0.09265,-0.03088 0.166287,-0.111871 0.262052,-0.131024 0.128479,-0.02569 0.262049,0 0.393073,0 0.26205,0 0.524101,0 0.786151,0 0.305724,0 0.611449,0 0.917174,0 0.04367,0 0.08735,0 0.131024,0 0.04368,0 0.09196,0.01953 0.131026,0 0.05524,-0.02762 0.07578,-0.103401 0.131023,-0.131025 0.04738,-0.02369 0.563993,0 0.655125,0 0.1747,0 0.3494,0 0.524101,0 0.04368,0 0.08735,0 0.131024,0 0.04368,0 0.131026,-0.04368 0.131026,0 0,0.04368 -0.08735,0 -0.131026,0"
       id="path4489"
       inkscape:connector-curvature="0" />
    <path
       style="fill:none;stroke:#000000;stroke-width:0.5291667;stroke-linecap:butt;stroke-linejoin:miter;stroke-miterlimit:4;stroke-dasharray:none;stroke-opacity:1"
       d="m 59.367013,67.796931 c 0.419279,0.559041 0.393075,0.305724 0.393075,0.655125 0,0.04368 -0.01381,0.08959 0,0.131024 0.03089,0.09265 0.107339,0.167306 0.131024,0.26205 0.01596,0.06384 -0.03464,0.454818 0,0.524101 0.02762,0.05524 0.103402,0.07578 0.131026,0.131024 0.01953,0.03906 -0.01381,0.08959 0,0.131026 0.328469,0.985406 -0.05526,-0.648868 0.131024,0.655125 0.02546,0.178265 0.10869,0.345413 0.131025,0.524098 0.02167,0.17335 0,0.3494 0,0.5241 0,0.08735 -0.02119,0.177308 0,0.26205 0.02369,0.09474 0.107339,0.167305 0.131026,0.262049 0.03393,0.135729 0,0.373859 0,0.524101 0,0.349399 0,0.698799 0,1.048198 0,0.436751 0,0.873501 0,1.31025 0,0.152207 0.02969,0.536343 0,0.655125 -0.02369,0.09474 -0.107338,0.167305 -0.131026,0.262049 -0.02119,0.08474 0.02119,0.177309 0,0.26205 -0.04737,0.189489 -0.214677,0.334611 -0.262049,0.5241 -0.02119,0.08474 0.02762,0.179182 0,0.262051 -0.02958,0.08872 -0.343031,0.292986 -0.393076,0.393074 -0.01953,0.03906 0.01953,0.09196 0,0.131025 -0.02762,0.05524 -0.08735,0.08735 -0.131024,0.131024 -0.04368,0.04368 -0.08735,0.08735 -0.131025,0.131026 -0.102342,0.102342 -0.280013,0.3177 -0.393076,0.393075 -0.08126,0.05417 -0.180791,0.07685 -0.262049,0.131024 -0.05139,0.03426 -0.07963,0.09676 -0.131024,0.131025 -0.218188,0.145459 -0.583751,0.241276 -0.78615,0.393075 -0.09883,0.07412 -0.163225,0.187932 -0.26205,0.26205 -0.07813,0.0586 -0.178306,0.08078 -0.26205,0.131024 -0.135032,0.08102 -0.252226,0.191627 -0.393075,0.26205 -0.12353,0.06177 -0.269543,0.06926 -0.393075,0.131026 -0.140847,0.07042 -0.252227,0.191625 -0.393074,0.262049 -0.123532,0.06177 -0.269542,0.06926 -0.393075,0.131026 -0.05525,0.02762 -0.07243,0.111492 -0.131026,0.131024 -0.165733,0.05524 -0.367842,-0.07813 -0.524099,0 -0.03907,0.01953 0.03088,0.100142 0,0.131026 -0.03089,0.03088 -0.08959,-0.01381 -0.131024,0 -0.09265,0.03088 -0.169402,0.100142 -0.262051,0.131023 -0.08287,0.02762 -0.179181,-0.02762 -0.26205,0 -0.09265,0.03089 -0.167306,0.107339 -0.26205,0.131026 -0.08474,0.02119 -0.179182,-0.02762 -0.262049,0 -0.0586,0.01953 -0.07578,0.103402 -0.131026,0.131026 -0.03906,0.01953 -0.08735,0 -0.131023,0 -0.156656,0 -0.700635,-0.02851 -0.786152,0 -0.09265,0.03088 -0.167305,0.107338 -0.262049,0.131023 -0.08474,0.02119 -0.174699,0 -0.262049,0 -0.08735,0 -0.1747,0 -0.26205,0 -0.305725,0 -0.611449,0 -0.917175,0 -0.480425,0 -0.96085,0 -1.441273,0 -0.143066,0 -0.570391,0.02824 -0.655125,0 -0.09265,-0.03088 -0.169402,-0.100142 -0.26205,-0.131023 -0.04143,-0.01381 -0.09196,0.01953 -0.131025,0 -0.05524,-0.02762 -0.0711,-0.116045 -0.131024,-0.131026 -0.127113,-0.03178 -0.265963,0.03178 -0.393075,0 -0.119844,-0.02996 -0.15156,-0.206805 -0.26205,-0.262049 -0.07813,-0.03907 -0.183923,0.03907 -0.26205,0 -0.05525,-0.02762 -0.07578,-0.103403 -0.131025,-0.131026 -0.07813,-0.03907 -0.200284,0.06177 -0.26205,0 -0.03088,-0.03089 0.03088,-0.100141 0,-0.131024 -0.06177,-0.06177 -0.200285,0.06177 -0.26205,0 -0.03088,-0.03088 0.03088,-0.100143 0,-0.131026 -0.06552,-0.06551 -0.327563,0.06551 -0.393075,0 -0.1747,-0.1747 0.277946,-0.125726 -0.131025,-0.262049 -0.08287,-0.02762 -0.179182,0.02762 -0.26205,0 -0.117191,-0.03907 -0.15156,-0.206805 -0.26205,-0.26205 -0.03907,-0.01953 -0.100143,0.03089 -0.131023,0 -0.03089,-0.03088 0.03088,-0.100143 0,-0.131026 -0.06177,-0.06177 -0.183923,0.03907 -0.262052,0 -0.545293,-0.272646 0.140071,0.009 -0.131024,-0.262049 -0.03089,-0.03088 -0.100142,0.03088 -0.131026,0 -0.03088,-0.03088 0.03907,-0.111492 0,-0.131025 -0.07813,-0.03906 -0.17918,0.02762 -0.262049,0 -0.08872,-0.02958 -0.292986,-0.34303 -0.393075,-0.393075 -0.03906,-0.01953 -0.08735,0 -0.131024,0 -0.08735,-0.04368 -0.180792,-0.07685 -0.26205,-0.131025 -0.05139,-0.03426 -0.08735,-0.08735 -0.131026,-0.131024 -0.1653,-0.165303 -0.341557,-0.387195 -0.524099,-0.524101 -0.07813,-0.05859 -0.192993,-0.06197 -0.262049,-0.131024 -0.03089,-0.03088 0.01381,-0.08959 0,-0.131025 -0.03089,-0.09265 -0.07243,-0.183922 -0.131026,-0.26205 -0.07412,-0.09883 -0.1747,-0.1747 -0.262049,-0.26205 -0.04368,-0.131025 -0.05442,-0.278159 -0.131027,-0.393075 -0.02422,-0.03634 -0.117213,0.04143 -0.131023,0 -0.04143,-0.124301 0.02569,-0.264594 0,-0.393073 -0.01916,-0.09577 -0.08735,-0.174702 -0.131026,-0.262052 -0.04367,-0.08735 -0.07685,-0.180792 -0.131024,-0.26205 -0.03426,-0.05139 -0.103402,-0.07578 -0.131025,-0.131023 -0.01953,-0.03907 0.01953,-0.09196 0,-0.131027 -0.02762,-0.05524 -0.103403,-0.07578 -0.131025,-0.131023 -0.03907,-0.07813 0.03906,-0.183923 0,-0.262052 -0.07862,-0.157229 -0.31446,-0.235844 -0.393075,-0.393073 -0.02369,-0.04738 0,-0.563993 0,-0.655125 0,-0.567775 0,-1.13555 0,-1.703325 0,-0.567773 0,-1.135548 0,-1.703324 0,-0.296636 -0.0321,-0.62828 0,-0.917174 0.02456,-0.221063 0.191655,-0.932843 0.26205,-1.179224 0.03794,-0.132799 0.07973,-0.264841 0.131025,-0.393075 0.03627,-0.09068 0.111872,-0.166286 0.131025,-0.26205 0.02569,-0.128479 -0.03178,-0.265962 0,-0.393075 0.02996,-0.119844 0.222985,-0.144856 0.262049,-0.262049 0.02762,-0.08287 -0.03907,-0.183922 0,-0.26205 0.01953,-0.03907 0.100142,0.03088 0.131026,0 0.03088,-0.03088 -0.01381,-0.08959 0,-0.131026 0.03088,-0.09265 0.100143,-0.1694 0.131023,-0.262049 0.01381,-0.04143 -0.01953,-0.09196 0,-0.131024 0.02762,-0.05524 0.08735,-0.08735 0.131027,-0.131026 0.08735,-0.08735 0.18793,-0.163224 0.262049,-0.26205 0.0586,-0.07813 0.07685,-0.180792 0.131026,-0.262049 0.03426,-0.05139 0.103402,-0.07578 0.131023,-0.131026 0.01953,-0.03907 -0.01953,-0.09196 0,-0.131023 0.03972,-0.07944 0.482014,-0.467987 0.524101,-0.524102 0.288668,-0.06598 0.06926,-0.269543 0.131024,-0.393073 0.05524,-0.11049 0.206805,-0.151561 0.26205,-0.26205 0.01953,-0.03907 -0.01953,-0.09196 0,-0.131025 0.02762,-0.05524 0.103402,-0.07578 0.131026,-0.131026 0.01953,-0.03906 -0.01953,-0.09196 0,-0.131024 0.02762,-0.05524 0.103402,-0.07578 0.131024,-0.131026 0.01953,-0.03907 -0.01953,-0.09196 0,-0.131024 0.05524,-0.11049 0.206806,-0.151561 0.262051,-0.26205 0.01953,-0.03907 -0.01953,-0.09196 0,-0.131025 0.02762,-0.05524 0.08735,-0.08735 0.131024,-0.131026 0.102342,-0.10234 0.3177,-0.280013 0.393075,-0.393073 0.05418,-0.08126 0.06197,-0.192994 0.131024,-0.26205 0.0084,-0.0084 0.499695,-0.24578 0.524101,-0.262051 0.05139,-0.03426 0.103402,-0.07578 0.131024,-0.131024 0.01953,-0.03907 -0.03907,-0.111494 0,-0.131025 0.156257,-0.07813 0.367844,0.07813 0.524101,0 0.03906,-0.01953 -0.03088,-0.100142 0,-0.131025 0.03088,-0.03088 0.08735,0 0.131024,0 0.08735,0 0.183923,0.03907 0.26205,0 0.03907,-0.01953 -0.03907,-0.111493 0,-0.131025 0.117192,-0.0586 0.275882,0.0586 0.393075,0 0.05524,-0.02762 0.07578,-0.103403 0.131025,-0.131024 0.08632,-0.04316 0.664983,0.04039 0.786149,0 0.0586,-0.01953 0.07578,-0.103404 0.131026,-0.131026 0.104818,-0.05241 0.288253,0.05241 0.393073,0 0.03907,-0.01953 -0.03907,-0.111493 0,-0.131025 0.07813,-0.03906 0.177308,0.02119 0.26205,0 0.09475,-0.02368 0.169402,-0.100142 0.262051,-0.131025 0.08287,-0.02762 0.179181,0.02762 0.26205,0 0.09265,-0.03088 0.1694,-0.100142 0.26205,-0.131025 0.124301,-0.04143 0.264594,0.0257 0.393075,0 0.13543,-0.02709 0.259085,-0.09753 0.393073,-0.131024 0.161603,-0.0404 0.486145,0.0338 0.655125,0 0.724181,-0.144836 0.16336,-0.131026 0.524099,-0.131026 0.131026,0 0.262052,0 0.393076,0 0.08735,0 0.179182,0.02762 0.262049,0 0.0586,-0.01953 0.07243,-0.111493 0.131026,-0.131024 0.108518,-0.03617 0.5718,0.04166 0.655125,0 0.05524,-0.02762 0.07578,-0.103404 0.131023,-0.131026 0.04176,-0.02087 0.538026,0 0.655125,0 0.5241,0 1.048201,0 1.5723,0 0.103131,0 0.644603,-0.01053 0.655124,0 0.03089,0.03089 -0.03088,0.100143 0,0.131026 0.06906,0.06906 0.180792,0.07685 0.26205,0.131024 0.05139,0.03426 0.07243,0.111493 0.131026,0.131026 0.08287,0.02762 0.179181,-0.02762 0.262049,0 0.0586,0.01953 0.08735,0.08735 0.131025,0.131024 0.04368,0.04368 0.103402,0.07578 0.131025,0.131025 0.01953,0.03907 -0.03088,0.100143 0,0.131025 0.06177,0.06177 0.200283,-0.06177 0.26205,0 0.03088,0.03088 -0.01953,0.09196 0,0.131025 0.02762,0.05524 0.08735,0.08735 0.131025,0.131026 0.04368,0.04368 0.07243,0.111492 0.131025,0.131024 0.08287,0.02762 0.200285,-0.06177 0.262049,0 0.06177,0.06177 -0.04845,0.18937 0,0.26205 0.05418,0.08126 0.180792,0.07685 0.262049,0.131025 0.102787,0.06853 0.151562,0.206804 0.262052,0.26205 0.03906,0.01953 0.09196,-0.01953 0.131024,0 0.11049,0.05524 0.151559,0.206804 0.262049,0.262049 0.03907,0.01953 0.100143,-0.03088 0.131026,0 0.03089,0.03089 -0.03088,0.100142 0,0.131026 0.271095,0.271095 -0.0106,-0.414269 0.26205,0.131024 0.01953,0.03907 -0.03088,0.100142 0,0.131025 0.06177,0.06177 0.200284,-0.06177 0.262049,0 0.03088,0.03089 -0.01953,0.09196 0,0.131024 0.02762,0.05525 0.08735,0.08735 0.131026,0.131026 0.04368,0.04368 0.07578,0.103402 0.131024,0.131025 0.03907,0.01953 0.100143,-0.03088 0.131026,0 0.06177,0.06177 -0.06177,0.200284 0,0.26205 0.03088,0.03088 0.09196,-0.01953 0.131024,0 0.05524,0.02762 0.08735,0.08735 0.131025,0.131024 0.04368,0.04368 0.103403,0.07578 0.131026,0.131026 0.01953,0.03907 -0.01953,0.09196 0,0.131024 0.02762,0.05524 0.103402,0.07578 0.131024,0.131026 0.01953,0.03907 -0.01953,0.09196 0,0.131025 0.02762,0.05524 0.103402,0.07578 0.131026,0.131024 0.03907,0.07813 -0.06177,0.200285 0,0.262049 0.06177,0.06177 0.200283,-0.06177 0.262049,0 0.06177,0.06177 -0.03907,0.183924 0,0.26205 0.02762,0.05524 0.103402,0.07578 0.131024,0.131026 0.02598,0.05195 -0.02678,0.366288 0,0.393076 0.03089,0.03088 0.100142,-0.03089 0.131026,0 0.06177,0.06176 -0.06177,0.200283 0,0.262049 0.03088,0.03089 0.100143,-0.03088 0.131026,0 0.03088,0.03089 -0.03088,0.100142 0,0.131024 0.03088,0.03088 0.10014,-0.03088 0.131023,0 0.006,0.006 0,0.593347 0,0.655125 0,0.04368 -0.03088,0.100142 0,0.131025 0.03089,0.03088 0.100143,-0.03088 0.131026,0 0.06177,0.06177 -0.03907,0.183921 0,0.26205 0.02762,0.05524 0.111492,0.07243 0.131024,0.131026 0.161909,0.485722 -0.176252,0.0858 0.131025,0.393073"
       id="path4491"
       inkscape:connector-curvature="0" />
    <path
       style="fill:none;stroke:#000000;stroke-width:0.5291667;stroke-linecap:butt;stroke-linejoin:miter;stroke-miterlimit:4;stroke-dasharray:none;stroke-opacity:1"
       d="m 70.956125,79.969617 c 0.35984,-0.168721 0.738538,-0.324485 1.079516,-0.506165 0.451855,-0.240757 0.845264,-0.517396 1.295418,-0.759246 0.414344,-0.22261 0.881076,-0.410095 1.29542,-0.632705 0.450154,-0.241851 0.863613,-0.506164 1.295418,-0.759247 1.206578,-0.707177 2.857698,-1.642798 3.886256,-2.404281 0.751626,-0.556456 2.430171,-2.09144 3.238547,-2.783904 0.496062,-0.424931 1.042221,-0.830088 1.511324,-1.26541 0.395663,-0.367173 0.693146,-0.768312 1.079516,-1.138871 1.144813,-1.097961 1.474382,-1.07392 2.159031,-2.277738 0.230644,-0.405543 0.5181,-1.404351 0.647708,-1.898117 0.07738,-0.294792 0.169831,-0.588752 0.215904,-0.885787 0.05214,-0.336057 0,-0.674885 0,-1.012329 0,-0.168722 0,-0.337443 0,-0.506165 0,-0.04219 0.06437,-0.107677 0,-0.12654 -0.642235,-0.188208 -2.421726,-0.192911 -2.806742,-0.126541 -0.572754,0.09873 -2.556024,0.964576 -3.022645,1.26541 -0.926501,0.597326 -1.042273,0.980278 -1.295418,1.771576 -0.166496,0.520443 -0.36074,1.641862 -0.215904,2.151198 0.112239,0.394714 0.394148,0.767332 0.647711,1.13887 1.08409,1.588463 1.285687,1.572852 3.022645,3.163527 1.979386,1.812688 0.820977,0.987338 3.238548,2.404281 1.265124,0.741492 1.599297,1.070135 3.238546,1.518493 0.474779,0.129858 1.014274,0.155976 1.511322,0.253081 0.583339,0.113966 1.122866,0.313208 1.727226,0.379624 0.565881,0.06218 1.151482,0 1.727223,0 0.647712,0 1.310846,0.08235 1.943131,0 0.69192,-0.09012 1.322066,-0.305962 1.943124,-0.506165 2.73729,-0.882379 1.89954,-0.722674 4.10217,-1.771574 0.55855,-0.265987 1.1984,-0.473146 1.72722,-0.759247 0.41302,-0.223452 0.7035,-0.514376 1.07952,-0.759246 0.71065,-0.462806 1.08765,-0.622361 1.94312,-1.01233 0.77254,-0.352165 0.78538,-0.43716 1.72724,-0.506163 1.05415,-0.07724 1.21612,0.04563 2.15902,0.506163 2.57159,1.256012 0.0211,0.246526 2.59084,1.645034 0.52737,0.287018 1.16132,0.498648 1.72723,0.759247 0.44198,0.203535 0.80991,0.46671 1.29542,0.632706 0.39315,0.134419 0.87058,0.157316 1.29542,0.253082 0.51154,0.115317 0.97539,0.312315 1.5113,0.379623 0.4926,0.06187 1.00757,0 1.51134,0 0.4318,0 0.86361,0 1.29542,0 0.35984,0 0.71966,0 1.07951,0 0.35983,0 0.72667,0.04136 1.07952,0 1.95429,-0.229083 0.26746,-0.2118 1.94312,-0.632705 0.19845,-0.04985 0.4546,0.05659 0.64772,0 0.14393,-0.04219 0.11537,-0.179433 0.21588,-0.253083 0.19077,-0.13974 0.49944,-0.223187 0.64772,-0.379623 0.22105,-0.2332 0.29795,-0.504271 0.43181,-0.759247 0.15408,-0.293497 0.3706,-0.580813 0.43181,-0.885787 0.15305,-0.76244 -0.0424,-1.940004 -0.43181,-2.657362 -0.45022,-0.829335 -1.71069,-2.109322 -2.59083,-2.783904 -0.37095,-0.284311 -0.84792,-0.515705 -1.29542,-0.759247 -0.56061,-0.305104 -1.08493,-0.642203 -1.72724,-0.885788 -0.59509,-0.225682 -1.28501,-0.351877 -1.94311,-0.506163 -3.25293,-0.762618 -1.42982,-0.326827 -4.74987,-0.759247 -0.51146,-0.06662 -0.992,-0.212498 -1.51132,-0.253083 -0.5707,-0.04461 -1.15296,0.02405 -1.72725,0 -0.43663,-0.01828 -0.86032,-0.09821 -1.29539,-0.126541 -0.35766,-0.02328 -0.7197,0 -1.07954,0 -0.54129,0 -0.78726,-0.08948 -1.0795,0.253082 -0.25324,0.296838 -0.40568,1.106629 0,1.391952 0.61905,0.435398 1.23223,0.46438 2.15904,0.506165 0.50228,0.02264 1.00754,0 1.5113,0 0.71968,0 1.43936,0 2.15904,0 0.71966,0 1.43935,0 2.15903,0 0.8636,0 1.73047,0.04385 2.59083,0 0.8016,-0.04085 1.57395,-0.208371 2.37495,-0.253082 0.71642,-0.03999 1.43934,0 2.15903,0 0.71968,0 1.4426,-0.03999 2.15902,0 1.48343,0.0828 2.93807,0.309178 4.31807,0.632705 0.44826,0.105087 0.84979,0.270795 1.29542,0.379623 0.42015,0.102606 0.92254,0.100099 1.29542,0.253083 0.37751,0.154884 0.53776,0.441725 0.8636,0.632705 3.92378,1.971192 -0.54225,-0.44468 2.37494,1.645034 0.2918,0.209036 0.70684,0.347308 1.07952,0.506164 1.41658,0.603824 1.02899,0.45411 2.59083,0.759247 2.32771,0.454755 0.36441,0.09276 2.15904,0.379623 0.50547,0.0808 0.99452,0.202598 1.51132,0.253083 1.04199,0.101784 3.07654,-0.141101 3.88625,-0.506165 0.52592,-0.237107 0.82626,-0.610805 1.29543,-0.885788 0.46918,-0.274981 1.04215,-0.484264 1.51133,-0.759247 0.39743,-0.232948 0.68204,-0.526297 1.0795,-0.759245 1.09748,-0.643232 2.42021,-1.301334 3.88626,-1.645035 0.27551,-0.06459 0.57574,-0.08436 0.86362,-0.126541 0.28786,-0.04219 0.56869,-0.107335 0.86361,-0.126541 0.35763,-0.02328 0.71967,0 1.07952,0 0.50377,0 1.00754,0 1.51131,0 1.00756,0 2.01509,0 3.02265,0 0.43181,0 0.8647,-0.01803 1.29542,0 0.57875,0.02423 1.14871,0.100459 1.72722,0.126541 0.35877,0.01618 0.71968,0 1.07951,0 1.15149,0 2.30299,0 3.45446,0 2.37493,0 4.74987,0 7.12481,0"
       id="path4497"
       inkscape:connector-curvature="0" />
  </g>
</svg>
