<?xml version="1.0" encoding="UTF-8" standalone="no"?>
<!-- Created with Inkscape (http://www.inkscape.org/) -->

<svg
   xmlns:dc="http://purl.org/dc/elements/1.1/"
   xmlns:cc="http://creativecommons.org/ns#"
   xmlns:rdf="http://www.w3.org/1999/02/22-rdf-syntax-ns#"
   xmlns:svg="http://www.w3.org/2000/svg"
   xmlns="http://www.w3.org/2000/svg"
   xmlns:sodipodi="http://sodipodi.sourceforge.net/DTD/sodipodi-0.dtd"
   xmlns:inkscape="http://www.inkscape.org/namespaces/inkscape"
   width="29.558018mm"
   height="9.0870686mm"
   viewBox="0 0 29.558018 9.0870683"
   version="1.1"
   id="svg8"
   inkscape:version="0.92.1 r15371"
   sodipodi:docname="secko.svg">
  <defs
     id="defs2" />
  <sodipodi:namedview
     id="base"
     pagecolor="#ffffff"
     bordercolor="#666666"
     borderopacity="1.0"
     inkscape:pageopacity="0.0"
     inkscape:pageshadow="2"
     inkscape:zoom="0.98994949"
     inkscape:cx="586.01789"
     inkscape:cy="-196.82658"
     inkscape:document-units="mm"
     inkscape:current-layer="layer1"
     showgrid="false"
     fit-margin-top="0"
     fit-margin-left="0"
     fit-margin-right="0"
     fit-margin-bottom="0"
     inkscape:window-width="1920"
     inkscape:window-height="1005"
     inkscape:window-x="-9"
     inkscape:window-y="-9"
     inkscape:window-maximized="1"
     objecttolerance="1"
     guidetolerance="1"
     gridtolerance="1" />
  <metadata
     id="metadata5">
    <rdf:RDF>
      <cc:Work
         rdf:about="">
        <dc:format>image/svg+xml</dc:format>
        <dc:type
           rdf:resource="http://purl.org/dc/dcmitype/StillImage" />
        <dc:title></dc:title>
      </cc:Work>
    </rdf:RDF>
  </metadata>
  <g
     inkscape:label="Layer 1"
     inkscape:groupmode="layer"
     id="layer1"
     transform="translate(88.296972,19.591389)">
    <path
       style="fill:none;stroke:#000000;stroke-width:0.5291667;stroke-linecap:butt;stroke-linejoin:miter;stroke-miterlimit:4;stroke-dasharray:none;stroke-opacity:1"
       d="m 46.657596,76.182527 c 0,-1.2229 0,-2.4458 0,-3.668698 0,-0.193625 -0.0299,-0.79756 0,-0.917175 0.01499,-0.05992 0.118912,-0.07046 0.131024,-0.131025 0.03426,-0.171308 0,-0.3494 0,-0.5241 0,-0.131025 0,-0.262049 0,-0.393075 0,-0.1747 -0.02471,-0.351155 0,-0.524099 0.01953,-0.136725 0.10394,-0.257646 0.131026,-0.393075 0.01713,-0.08565 0,-0.1747 0,-0.26205 0,-0.305725 0,-0.611449 0,-0.917174 0,-0.08735 -0.02119,-0.177308 0,-0.26205 0.02368,-0.09474 0.100141,-0.169402 0.131024,-0.26205 0.01381,-0.04143 0,-0.08735 0,-0.131025 0,-0.131024 -0.02569,-0.264594 0,-0.393076 0.01915,-0.09576 0.100142,-0.1694 0.131025,-0.262049 0.01381,-0.04143 -0.01953,-0.09196 0,-0.131024 0.02762,-0.05524 0.103403,-0.07578 0.131024,-0.131025 0.04117,-0.08235 -0.04118,-0.441749 0,-0.5241 0.02762,-0.05524 0.103404,-0.07578 0.131026,-0.131025 0.01953,-0.03907 -0.01953,-0.09196 0,-0.131025 0.05524,-0.11049 0.206804,-0.151561 0.26205,-0.262049 0.02915,-0.05831 -0.01997,-0.464171 0,-0.524101 0.01953,-0.0586 0.103402,-0.07578 0.131025,-0.131024 0.01953,-0.03907 0,-0.08735 0,-0.131026 0,-0.08735 -0.02762,-0.179183 0,-0.262049 0.01953,-0.0586 0.111492,-0.07243 0.131024,-0.131026 0.02762,-0.08287 0,-0.1747 0,-0.26205 0,-0.04367 -0.01953,-0.09196 0,-0.131023 0.02762,-0.05524 0.103402,-0.07578 0.131026,-0.131026 0.03554,-0.07108 -0.03585,-0.488249 0,-0.524099 0.03088,-0.03088 0.100142,-0.03088 0.131024,0 0.03089,0.03088 -0.01381,0.08959 0,0.131024 0.03089,0.09265 0.107338,0.167305 0.131026,0.262051 0.02119,0.08474 0,0.1747 0,0.26205 0.08735,0.218373 0.187674,0.431996 0.262049,0.655125 0.04143,0.1243 -0.03178,0.26596 0,0.393073 0.02369,0.09474 0.100143,0.169402 0.131026,0.26205 0.01381,0.04143 0,0.08735 0,0.131025 0,0.131026 -0.0257,0.264594 0,0.393075 0.01916,0.09577 0.10014,0.169401 0.131023,0.26205 0.01381,0.04143 -0.01381,0.08959 0,0.131024 0.06177,0.185299 0.200286,0.338802 0.26205,0.524101 0.01381,0.04143 -0.01953,0.09196 0,0.131024 0.02762,0.05525 0.103404,0.07578 0.131026,0.131026 0.01953,0.03907 -0.01953,0.09196 0,0.131023 0.02762,0.05524 0.103402,0.07578 0.131026,0.131026 0.01953,0.03907 -0.01953,0.09196 0,0.131026 0.02762,0.05524 0.09676,0.07963 0.131023,0.131024 0.05418,0.08126 0.07685,0.180791 0.131026,0.262049 0.06853,0.102784 0.206805,0.151561 0.26205,0.26205 0.01953,0.03907 -0.01953,0.09196 0,0.131026 0.272646,0.545295 -0.009,-0.140071 0.262049,0.131025 0.06177,0.06177 -0.03907,0.183921 0,0.26205 0.150804,0.301606 0.153697,-0.05712 0.393076,0.26205 0.08287,0.11049 0.07973,0.264839 0.131024,0.393075 0.07254,0.181349 0.200285,0.338802 0.262049,0.524099 0.02762,0.08287 -0.02762,0.179183 0,0.262049 0.03089,0.09265 0.100143,0.169401 0.131026,0.26205 0.08068,0.242032 -0.199932,0.06212 0.131026,0.393075 0.03088,0.03089 0.10014,-0.03088 0.131024,0 0.06177,0.06177 -0.03907,0.183922 0,0.26205 0.272646,0.545295 -0.009,-0.140071 0.262049,0.131026 0.03089,0.03088 -0.01953,0.09196 0,0.131024 0.02762,0.05524 0.103402,0.07578 0.131026,0.131025 0.01953,0.03907 -0.03089,0.100141 0,0.131024 0.03088,0.03088 0.100143,-0.03089 0.131023,0 0.06906,0.06905 0.06197,0.192994 0.131026,0.26205 0.03089,0.03089 0.100143,-0.03088 0.131026,0 0.03088,0.03089 -0.03089,0.100142 0,0.131026 0.271095,0.271094 -0.0106,-0.41427 0.262049,0.131025 0.01953,0.03906 -0.03088,0.100141 0,0.131024 0.03089,0.03088 0.111492,-0.03907 0.131024,0 0.03907,0.07813 -0.02119,0.177308 0,0.26205 0.02369,0.09474 0.08735,0.174699 0.131026,0.262049 0.04368,0.08735 0.06197,0.192994 0.131024,0.262052 0.06906,0.06905 0.192994,0.06197 0.262051,0.131024 0.06906,0.06905 0.08735,0.174699 0.131024,0.262049 0.04368,0.08735 0.100143,0.169403 0.131026,0.26205 0.01381,0.04143 -0.01953,0.09196 0,0.131026 0.02762,0.05524 0.111492,0.07243 0.131024,0.131025 0.02762,0.08287 -0.02762,0.179181 0,0.26205 0.136323,0.40897 0.08735,-0.04368 0.262049,0.131024 0.03089,0.03088 -0.01953,0.09196 0,0.131025 0.135342,0.27068 0.213073,-0.008 0.393076,0.26205 0.07979,0.11969 0.11184,0.31797 0.262049,0.393075 0.03907,0.01953 0.100143,-0.03089 0.131026,0 0.06177,0.06177 -0.06177,0.200284 0,0.26205 0.06177,0.06177 0.200284,-0.06177 0.262049,0 0.03089,0.03089 -0.03088,0.100142 0,0.131024 0.03089,0.03088 0.08735,0 0.131027,0 0.04367,0 0.08735,0 0.131023,0 0.04368,0 0.1747,0 0.131026,0 -0.08735,0 -0.262049,0.08735 -0.262049,0 0,-0.09766 0.192993,-0.06197 0.262049,-0.131024 5.5e-4,-7.63e-4 -0.0011,-0.388031 0,-0.393076 0.02709,-0.135429 0.108318,-0.256841 0.131024,-0.393075 0.0359,-0.215402 -0.04283,-0.44099 0,-0.655123 0.02709,-0.135431 0.10832,-0.256842 0.131025,-0.393075 0.02154,-0.129243 0,-0.26205 0,-0.393075 0,-0.04367 -0.01059,-0.08865 0,-0.131024 0.0335,-0.13399 0.103938,-0.257646 0.131025,-0.393075 0.03426,-0.171308 0,-0.3494 0,-0.5241 0,-0.349401 0,-0.6988 0,-1.0482 0,-0.26205 0,-0.524099 0,-0.786148 0,-1.3976 0,-2.7952 0,-4.192799 0,-0.393074 0,-0.78615 0,-1.179225 0,-0.09287 -0.01693,-0.752272 0,-0.786148 0.02762,-0.05524 0.08735,-0.08735 0.131025,-0.131026"
       id="path4485"
       inkscape:connector-curvature="0" />
    <path
       style="fill:none;stroke:#000000;stroke-width:0.5291667;stroke-linecap:butt;stroke-linejoin:miter;stroke-miterlimit:4;stroke-dasharray:none;stroke-opacity:1"
       d="m 44.954271,72.382803 c 0.579167,-0.138099 1.139606,-0.336194 1.703325,-0.524099 0.131024,-0.04368 0.266129,-0.07662 0.393074,-0.131026 0.179527,-0.07694 0.349399,-0.174699 0.5241,-0.262049 0.08735,-0.04368 0.169401,-0.100143 0.26205,-0.131024 1.595515,-0.531841 -0.134584,0.05312 0.786149,-0.131026 0.13543,-0.02709 0.259087,-0.09753 0.393076,-0.131026 0.04237,-0.01059 0.08959,0.01381 0.131023,0 0.09265,-0.03088 0.166287,-0.111871 0.262052,-0.131024 0.128479,-0.02569 0.262049,0 0.393073,0 0.26205,0 0.524101,0 0.786151,0 0.305724,0 0.611449,0 0.917174,0 0.04367,0 0.08735,0 0.131024,0 0.04368,0 0.09196,0.01953 0.131026,0 0.05524,-0.02762 0.07578,-0.103401 0.131023,-0.131025 0.04738,-0.02369 0.563993,0 0.655125,0 0.1747,0 0.3494,0 0.524101,0 0.04368,0 0.08735,0 0.131024,0 0.04368,0 0.131026,-0.04368 0.131026,0 0,0.04368 -0.08735,0 -0.131026,0"
       id="path4489"
       inkscape:connector-curvature="0" />
    <path
       style="fill:none;stroke:#000000;stroke-width:0.5291667;stroke-linecap:butt;stroke-linejoin:miter;stroke-miterlimit:4;stroke-dasharray:none;stroke-opacity:1"
       d="m 59.367013,67.796931 c 0.419279,0.559041 0.393075,0.305724 0.393075,0.655125 0,0.04368 -0.01381,0.08959 0,0.131024 0.03089,0.09265 0.107339,0.167306 0.131024,0.26205 0.01596,0.06384 -0.03464,0.454818 0,0.524101 0.02762,0.05524 0.103402,0.07578 0.131026,0.131024 0.01953,0.03906 -0.01381,0.08959 0,0.131026 0.328469,0.985406 -0.05526,-0.648868 0.131024,0.655125 0.02546,0.178265 0.10869,0.345413 0.131025,0.524098 0.02167,0.17335 0,0.3494 0,0.5241 0,0.08735 -0.02119,0.177308 0,0.26205 0.02369,0.09474 0.107339,0.167305 0.131026,0.262049 0.03393,0.135729 0,0.373859 0,0.524101 0,0.349399 0,0.698799 0,1.048198 0,0.436751 0,0.873501 0,1.31025 0,0.152207 0.02969,0.536343 0,0.655125 -0.02369,0.09474 -0.107338,0.167305 -0.131026,0.262049 -0.02119,0.08474 0.02119,0.177309 0,0.26205 -0.04737,0.189489 -0.214677,0.334611 -0.262049,0.5241 -0.02119,0.08474 0.02762,0.179182 0,0.262051 -0.02958,0.08872 -0.343031,0.292986 -0.393076,0.393074 -0.01953,0.03906 0.01953,0.09196 0,0.131025 -0.02762,0.05524 -0.08735,0.08735 -0.131024,0.131024 -0.04368,0.04368 -0.08735,0.08735 -0.131025,0.131026 -0.102342,0.102342 -0.280013,0.3177 -0.393076,0.393075 -0.08126,0.05417 -0.180791,0.07685 -0.262049,0.131024 -0.05139,0.03426 -0.07963,0.09676 -0.131024,0.131025 -0.218188,0.145459 -0.583751,0.241276 -0.78615,0.393075 -0.09883,0.07412 -0.163225,0.187932 -0.26205,0.26205 -0.07813,0.0586 -0.178306,0.08078 -0.26205,0.131024 -0.135032,0.08102 -0.252226,0.191627 -0.393075,0.26205 -0.12353,0.06177 -0.269543,0.06926 -0.393075,0.131026 -0.140847,0.07042 -0.252227,0.191625 -0.393074,0.262049 -0.123532,0.06177 -0.269542,0.06926 -0.393075,0.131026 -0.05525,0.02762 -0.07243,0.111492 -0.131026,0.131024 -0.165733,0.05524 -0.367842,-0.07813 -0.524099,0 -0.03907,0.01953 0.03088,0.100142 0,0.131026 -0.03089,0.03088 -0.08959,-0.01381 -0.131024,0 -0.09265,0.03088 -0.169402,0.100142 -0.262051,0.131023 -0.08287,0.02762 -0.179181,-0.02762 -0.26205,0 -0.09265,0.03089 -0.167306,0.107339 -0.26205,0.131026 -0.08474,0.02119 -0.179182,-0.02762 -0.262049,0 -0.0586,0.01953 -0.07578,0.103402 -0.131026,0.131026 -0.03906,0.01953 -0.08735,0 -0.131023,0 -0.156656,0 -0.700635,-0.02851 -0.786152,0 -0.09265,0.03088 -0.167305,0.107338 -0.262049,0.131023 -0.08474,0.02119 -0.174699,0 -0.262049,0 -0.08735,0 -0.1747,0 -0.26205,0 -0.305725,0 -0.611449,0 -0.917175,0 -0.480425,0 -0.96085,0 -1.441273,0 -0.143066,0 -0.570391,0.02824 -0.655125,0 -0.09265,-0.03088 -0.169402,-0.100142 -0.26205,-0.131023 -0.04143,-0.01381 -0.09196,0.01953 -0.131025,0 -0.05524,-0.02762 -0.0711,-0.116045 -0.131024,-0.131026 -0.127113,-0.03178 -0.265963,0.03178 -0.393075,0 -0.119844,-0.02996 -0.15156,-0.206805 -0.26205,-0.262049 -0.07813,-0.03907 -0.183923,0.03907 -0.26205,0 -0.05525,-0.02762 -0.07578,-0.103403 -0.131025,-0.131026 -0.07813,-0.03907 -0.200284,0.06177 -0.26205,0 -0.03088,-0.03089 0.03088,-0.100141 0,-0.131024 -0.06177,-0.06177 -0.200285,0.06177 -0.26205,0 -0.03088,-0.03088 0.03088,-0.100143 0,-0.131026 -0.06552,-0.06551 -0.327563,0.06551 -0.393075,0 -0.1747,-0.1747 0.277946,-0.125726 -0.131025,-0.262049 -0.08287,-0.02762 -0.179182,0.02762 -0.26205,0 -0.117191,-0.03907 -0.15156,-0.206805 -0.26205,-0.26205 -0.03907,-0.01953 -0.100143,0.03089 -0.131023,0 -0.03089,-0.03088 0.03088,-0.100143 0,-0.131026 -0.06177,-0.06177 -0.183923,0.03907 -0.262052,0 -0.545293,-0.272646 0.140071,0.009 -0.131024,-0.262049 -0.03089,-0.03088 -0.100142,0.03088 -0.131026,0 -0.03088,-0.03088 0.03907,-0.111492 0,-0.131025 -0.07813,-0.03906 -0.17918,0.02762 -0.262049,0 -0.08872,-0.02958 -0.292986,-0.34303 -0.393075,-0.393075 -0.03906,-0.01953 -0.08735,0 -0.131024,0 -0.08735,-0.04368 -0.180792,-0.07685 -0.26205,-0.131025 -0.05139,-0.03426 -0.08735,-0.08735 -0.131026,-0.131024 -0.1653,-0.165303 -0.341557,-0.387195 -0.524099,-0.524101 -0.07813,-0.05859 -0.192993,-0.06197 -0.262049,-0.131024 -0.03089,-0.03088 0.01381,-0.08959 0,-0.131025 -0.03089,-0.09265 -0.07243,-0.183922 -0.131026,-0.26205 -0.07412,-0.09883 -0.1747,-0.1747 -0.262049,-0.26205 -0.04368,-0.131025 -0.05442,-0.278159 -0.131027,-0.393075 -0.02422,-0.03634 -0.117213,0.04143 -0.131023,0 -0.04143,-0.124301 0.02569,-0.264594 0,-0.393073 -0.01916,-0.09577 -0.08735,-0.174702 -0.131026,-0.262052 -0.04367,-0.08735 -0.07685,-0.180792 -0.131024,-0.26205 -0.03426,-0.05139 -0.103402,-0.07578 -0.131025,-0.131023 -0.01953,-0.03907 0.01953,-0.09196 0,-0.131027 -0.02762,-0.05524 -0.103403,-0.07578 -0.131025,-0.131023 -0.03907,-0.07813 0.03906,-0.183923 0,-0.262052 -0.07862,-0.157229 -0.31446,-0.235844 -0.393075,-0.393073 -0.02369,-0.04738 0,-0.563993 0,-0.655125 0,-0.567775 0,-1.13555 0,-1.703325 0,-0.567773 0,-1.135548 0,-1.703324 0,-0.296636 -0.0321,-0.62828 0,-0.917174 0.02456,-0.221063 0.191655,-0.932843 0.26205,-1.179224 0.03794,-0.132799 0.07973,-0.264841 0.131025,-0.393075 0.03627,-0.09068 0.111872,-0.166286 0.131025,-0.26205 0.02569,-0.128479 -0.03178,-0.265962 0,-0.393075 0.02996,-0.119844 0.222985,-0.144856 0.262049,-0.262049 0.02762,-0.08287 -0.03907,-0.183922 0,-0.26205 0.01953,-0.03907 0.100142,0.03088 0.131026,0 0.03088,-0.03088 -0.01381,-0.08959 0,-0.131026 0.03088,-0.09265 0.100143,-0.1694 0.131023,-0.262049 0.01381,-0.04143 -0.01953,-0.09196 0,-0.131024 0.02762,-0.05524 0.08735,-0.08735 0.131027,-0.131026 0.08735,-0.08735 0.18793,-0.163224 0.262049,-0.26205 0.0586,-0.07813 0.07685,-0.180792 0.131026,-0.262049 0.03426,-0.05139 0.103402,-0.07578 0.131023,-0.131026 0.01953,-0.03907 -0.01953,-0.09196 0,-0.131023 0.03972,-0.07944 0.482014,-0.467987 0.524101,-0.524102 0.288668,-0.06598 0.06926,-0.269543 0.131024,-0.393073 0.05524,-0.11049 0.206805,-0.151561 0.26205,-0.26205 0.01953,-0.03907 -0.01953,-0.09196 0,-0.131025 0.02762,-0.05524 0.103402,-0.07578 0.131026,-0.131026 0.01953,-0.03906 -0.01953,-0.09196 0,-0.131024 0.02762,-0.05524 0.103402,-0.07578 0.131024,-0.131026 0.01953,-0.03907 -0.01953,-0.09196 0,-0.131024 0.05524,-0.11049 0.206806,-0.151561 0.262051,-0.26205 0.01953,-0.03907 -0.01953,-0.09196 0,-0.131025 0.02762,-0.05524 0.08735,-0.08735 0.131024,-0.131026 0.102342,-0.10234 0.3177,-0.280013 0.393075,-0.393073 0.05418,-0.08126 0.06197,-0.192994 0.131024,-0.26205 0.0084,-0.0084 0.499695,-0.24578 0.524101,-0.262051 0.05139,-0.03426 0.103402,-0.07578 0.131024,-0.131024 0.01953,-0.03907 -0.03907,-0.111494 0,-0.131025 0.156257,-0.07813 0.367844,0.07813 0.524101,0 0.03906,-0.01953 -0.03088,-0.100142 0,-0.131025 0.03088,-0.03088 0.08735,0 0.131024,0 0.08735,0 0.183923,0.03907 0.26205,0 0.03907,-0.01953 -0.03907,-0.111493 0,-0.131025 0.117192,-0.0586 0.275882,0.0586 0.393075,0 0.05524,-0.02762 0.07578,-0.103403 0.131025,-0.131024 0.08632,-0.04316 0.664983,0.04039 0.786149,0 0.0586,-0.01953 0.07578,-0.103404 0.131026,-0.131026 0.104818,-0.05241 0.288253,0.05241 0.393073,0 0.03907,-0.01953 -0.03907,-0.111493 0,-0.131025 0.07813,-0.03906 0.177308,0.02119 0.26205,0 0.09475,-0.02368 0.169402,-0.100142 0.262051,-0.131025 0.08287,-0.02762 0.179181,0.02762 0.26205,0 0.09265,-0.03088 0.1694,-0.100142 0.26205,-0.131025 0.124301,-0.04143 0.264594,0.0257 0.393075,0 0.13543,-0.02709 0.259085,-0.09753 0.393073,-0.131024 0.161603,-0.0404 0.486145,0.0338 0.655125,0 0.724181,-0.144836 0.16336,-0.131026 0.524099,-0.131026 0.131026,0 0.262052,0 0.393076,0 0.08735,0 0.179182,0.02762 0.262049,0 0.0586,-0.01953 0.07243,-0.111493 0.131026,-0.131024 0.108518,-0.03617 0.5718,0.04166 0.655125,0 0.05524,-0.02762 0.07578,-0.103404 0.131023,-0.131026 0.04176,-0.02087 0.538026,0 0.655125,0 0.5241,0 1.048201,0 1.5723,0 0.103131,0 0.644603,-0.01053 0.655124,0 0.03089,0.03089 -0.03088,0.100143 0,0.131026 0.06906,0.06906 0.180792,0.07685 0.26205,0.131024 0.05139,0.03426 0.07243,0.111493 0.131026,0.131026 0.08287,0.02762 0.179181,-0.02762 0.262049,0 0.0586,0.01953 0.08735,0.08735 0.131025,0.131024 0.04368,0.04368 0.103402,0.07578 0.131025,0.131025 0.01953,0.03907 -0.03088,0.100143 0,0.131025 0.06177,0.06177 0.200283,-0.06177 0.26205,0 0.03088,0.03088 -0.01953,0.09196 0,0.131025 0.02762,0.05524 0.08735,0.08735 0.131025,0.131026 0.04368,0.04368 0.07243,0.111492 0.131025,0.131024 0.08287,0.02762 0.200285,-0.06177 0.262049,0 0.06177,0.06177 -0.04845,0.18937 0,0.26205 0.05418,0.08126 0.180792,0.07685 0.262049,0.131025 0.102787,0.06853 0.151562,0.206804 0.262052,0.26205 0.03906,0.01953 0.09196,-0.01953 0.131024,0 0.11049,0.05524 0.151559,0.206804 0.262049,0.262049 0.03907,0.01953 0.100143,-0.03088 0.131026,0 0.03089,0.03089 -0.03088,0.100142 0,0.131026 0.271095,0.271095 -0.0106,-0.414269 0.26205,0.131024 0.01953,0.03907 -0.03088,0.100142 0,0.131025 0.06177,0.06177 0.200284,-0.06177 0.262049,0 0.03088,0.03089 -0.01953,0.09196 0,0.131024 0.02762,0.05525 0.08735,0.08735 0.131026,0.131026 0.04368,0.04368 0.07578,0.103402 0.131024,0.131025 0.03907,0.01953 0.100143,-0.03088 0.131026,0 0.06177,0.06177 -0.06177,0.200284 0,0.26205 0.03088,0.03088 0.09196,-0.01953 0.131024,0 0.05524,0.02762 0.08735,0.08735 0.131025,0.131024 0.04368,0.04368 0.103403,0.07578 0.131026,0.131026 0.01953,0.03907 -0.01953,0.09196 0,0.131024 0.02762,0.05524 0.103402,0.07578 0.131024,0.131026 0.01953,0.03907 -0.01953,0.09196 0,0.131025 0.02762,0.05524 0.103402,0.07578 0.131026,0.131024 0.03907,0.07813 -0.06177,0.200285 0,0.262049 0.06177,0.06177 0.200283,-0.06177 0.262049,0 0.06177,0.06177 -0.03907,0.183924 0,0.26205 0.02762,0.05524 0.103402,0.07578 0.131024,0.131026 0.02598,0.05195 -0.02678,0.366288 0,0.393076 0.03089,0.03088 0.100142,-0.03089 0.131026,0 0.06177,0.06176 -0.06177,0.200283 0,0.262049 0.03088,0.03089 0.100143,-0.03088 0.131026,0 0.03088,0.03089 -0.03088,0.100142 0,0.131024 0.03088,0.03088 0.10014,-0.03088 0.131023,0 0.006,0.006 0,0.593347 0,0.655125 0,0.04368 -0.03088,0.100142 0,0.131025 0.03089,0.03088 0.100143,-0.03088 0.131026,0 0.06177,0.06177 -0.03907,0.183921 0,0.26205 0.02762,0.05524 0.111492,0.07243 0.131024,0.131026 0.161909,0.485722 -0.176252,0.0858 0.131025,0.393073"
       id="path4491"
       inkscape:connector-curvature="0" />
    <path
       style="fill:none;stroke:#000000;stroke-width:0.5291667;stroke-linecap:butt;stroke-linejoin:miter;stroke-miterlimit:4;stroke-dasharray:none;stroke-opacity:1"
       d="m 70.956125,79.969617 c 0.35984,-0.168721 0.738538,-0.324485 1.079516,-0.506165 0.451855,-0.240757 0.845264,-0.517396 1.295418,-0.759246 0.414344,-0.22261 0.881076,-0.410095 1.29542,-0.632705 0.450154,-0.241851 0.863613,-0.506164 1.295418,-0.759247 1.206578,-0.707177 2.857698,-1.642798 3.886256,-2.404281 0.751626,-0.556456 2.430171,-2.09144 3.238547,-2.783904 0.496062,-0.424931 1.042221,-0.830088 1.511324,-1.26541 0.395663,-0.367173 0.693146,-0.768312 1.079516,-1.138871 1.144813,-1.097961 1.474382,-1.07392 2.159031,-2.277738 0.230644,-0.405543 0.5181,-1.404351 0.647708,-1.898117 0.07738,-0.294792 0.169831,-0.588752 0.215904,-0.885787 0.05214,-0.336057 0,-0.674885 0,-1.012329 0,-0.168722 0,-0.337443 0,-0.506165 0,-0.04219 0.06437,-0.107677 0,-0.12654 -0.642235,-0.188208 -2.421726,-0.192911 -2.806742,-0.126541 -0.572754,0.09873 -2.556024,0.964576 -3.022645,1.26541 -0.926501,0.597326 -1.042273,0.980278 -1.295418,1.771576 -0.166496,0.520443 -0.36074,1.641862 -0.215904,2.151198 0.112239,0.394714 0.394148,0.767332 0.647711,1.13887 1.08409,1.588463 1.285687,1.572852 3.022645,3.163527 1.979386,1.812688 0.820977,0.987338 3.238548,2.404281 1.265124,0.741492 1.599297,1.070135 3.238546,1.518493 0.474779,0.129858 1.014274,0.155976 1.511322,0.253081 0.583339,0.113966 1.122866,0.313208 1.727226,0.379624 0.565881,0.06218 1.151482,0 1.727223,0 0.647712,0 1.310846,0.08235 1.943131,0 0.69192,-0.09012 1.322066,-0.305962 1.943124,-0.506165 2.73729,-0.882379 1.89954,-0.722674 4.10217,-1.771574 0.55855,-0.265987 1.1984,-0.473146 1.72722,-0.759247 0.41302,-0.223452 0.7035,-0.514376 1.07952,-0.759246 0.71065,-0.462806 1.08765,-0.622361 1.94312,-1.01233 0.77254,-0.352165 0.78538,-0.43716 1.72724,-0.506163 1.05415,-0.07724 1.21612,0.04563 2.15902,0.506163 2.57159,1.256012 0.0211,0.246526 2.59084,1.645034 0.52737,0.287018 1.16132,0.498648 1.72723,0.759247 0.44198,0.203535 0.80991,0.46671 1.29542,0.632706 0.39315,0.134419 0.87058,0.157316 1.29542,0.253082 0.51154,0.115317 0.97539,0.312315 1.5113,0.379623 0.4926,0.06187 1.00757,0 1.51134,0 0.4318,0 0.86361,0 1.29542,0 0.35984,0 0.71966,0 1.07951,0 0.35983,0 0.72667,0.04136 1.07952,0 1.95429,-0.229083 0.26746,-0.2118 1.94312,-0.632705 0.19845,-0.04985 0.4546,0.05659 0.64772,0 0.14393,-0.04219 0.11537,-0.179433 0.21588,-0.253083 0.19077,-0.13974 0.49944,-0.223187 0.64772,-0.379623 0.22105,-0.2332 0.29795,-0.504271 0.43181,-0.759247 0.15408,-0.293497 0.3706,-0.580813 0.43181,-0.885787 0.15305,-0.76244 -0.0424,-1.940004 -0.43181,-2.657362 -0.45022,-0.829335 -1.71069,-2.109322 -2.59083,-2.783904 -0.37095,-0.284311 -0.84792,-0.515705 -1.29542,-0.759247 -0.56061,-0.305104 -1.08493,-0.642203 -1.72724,-0.885788 -0.59509,-0.225682 -1.28501,-0.351877 -1.94311,-0.506163 -3.25293,-0.762618 -1.42982,-0.326827 -4.74987,-0.759247 -0.51146,-0.06662 -0.992,-0.212498 -1.51132,-0.253083 -0.5707,-0.04461 -1.15296,0.02405 -1.72725,0 -0.43663,-0.01828 -0.86032,-0.09821 -1.29539,-0.126541 -0.35766,-0.02328 -0.7197,0 -1.07954,0 -0.54129,0 -0.78726,-0.08948 -1.0795,0.253082 -0.25324,0.296838 -0.40568,1.106629 0,1.391952 0.61905,0.435398 1.23223,0.46438 2.15904,0.506165 0.50228,0.02264 1.00754,0 1.5113,0 0.71968,0 1.43936,0 2.15904,0 0.71966,0 1.43935,0 2.15903,0 0.8636,0 1.73047,0.04385 2.59083,0 0.8016,-0.04085 1.57395,-0.208371 2.37495,-0.253082 0.71642,-0.03999 1.43934,0 2.15903,0 0.71968,0 1.4426,-0.03999 2.15902,0 1.48343,0.0828 2.93807,0.309178 4.31807,0.632705 0.44826,0.105087 0.84979,0.270795 1.29542,0.379623 0.42015,0.102606 0.92254,0.100099 1.29542,0.253083 0.37751,0.154884 0.53776,0.441725 0.8636,0.632705 3.92378,1.971192 -0.54225,-0.44468 2.37494,1.645034 0.2918,0.209036 0.70684,0.347308 1.07952,0.506164 1.41658,0.603824 1.02899,0.45411 2.59083,0.759247 2.32771,0.454755 0.36441,0.09276 2.15904,0.379623 0.50547,0.0808 0.99452,0.202598 1.51132,0.253083 1.04199,0.101784 3.07654,-0.141101 3.88625,-0.506165 0.52592,-0.237107 0.82626,-0.610805 1.29543,-0.885788 0.46918,-0.274981 1.04215,-0.484264 1.51133,-0.759247 0.39743,-0.232948 0.68204,-0.526297 1.0795,-0.759245 1.09748,-0.643232 2.42021,-1.301334 3.88626,-1.645035 0.27551,-0.06459 0.57574,-0.08436 0.86362,-0.126541 0.28786,-0.04219 0.56869,-0.107335 0.86361,-0.126541 0.35763,-0.02328 0.71967,0 1.07952,0 0.50377,0 1.00754,0 1.51131,0 1.00756,0 2.01509,0 3.02265,0 0.43181,0 0.8647,-0.01803 1.29542,0 0.57875,0.02423 1.14871,0.100459 1.72722,0.126541 0.35877,0.01618 0.71968,0 1.07951,0 1.15149,0 2.30299,0 3.45446,0 2.37493,0 4.74987,0 7.12481,0"
       id="path4497"
       inkscape:connector-curvature="0" />
    <rect
       style="fill:#000000;fill-opacity:1;stroke:#ffffff;stroke-width:0.26458332"
       id="rect4486"
       width="109.84778"
       height="18.174328"
       x="71.378342"
       y="97.581696" />
    <path
       style="fill:none;stroke:#ffffff;stroke-width:0.52916676;stroke-linecap:butt;stroke-linejoin:miter;stroke-miterlimit:4;stroke-dasharray:none;stroke-opacity:1"
       d="m 71.549889,115.51026 c 0.35984,-0.16872 0.738538,-0.32448 1.079516,-0.50616 0.451855,-0.24076 0.845264,-0.5174 1.295418,-0.75925 0.414344,-0.22261 0.881076,-0.41009 1.29542,-0.6327 0.450154,-0.24185 0.863613,-0.50617 1.295418,-0.75925 1.206578,-0.70718 2.857698,-1.6428 3.886256,-2.40428 0.751626,-0.55646 2.430171,-2.09144 3.238547,-2.78391 0.496062,-0.42493 1.042221,-0.83008 1.511324,-1.26541 0.395663,-0.36717 0.693146,-0.76831 1.079516,-1.13887 1.144813,-1.09796 1.474382,-1.07392 2.159031,-2.27773 0.230645,-0.40555 0.5181,-1.40436 0.647709,-1.89812 0.07738,-0.29479 0.16983,-0.58875 0.215904,-0.88579 0.05214,-0.336055 0,-0.674883 0,-1.012327 0,-0.168722 0,-0.337443 0,-0.506165 0,-0.04219 0.06437,-0.107677 0,-0.12654 -0.642236,-0.188208 -2.421727,-0.192911 -2.806743,-0.126541 -0.572754,0.09873 -2.556023,0.964576 -3.022645,1.26541 -0.926501,0.597323 -1.042273,0.980273 -1.295418,1.771573 -0.166496,0.52045 -0.36074,1.64186 -0.215904,2.1512 0.112239,0.39471 0.394148,0.76733 0.647711,1.13887 1.08409,1.58846 1.285687,1.57285 3.022645,3.16353 1.979386,1.81269 0.820977,0.98734 3.238549,2.40428 1.265123,0.74149 1.599296,1.07013 3.238546,1.51849 0.474778,0.12986 1.014273,0.15598 1.511322,0.25308 0.583339,0.11397 1.122866,0.31321 1.727225,0.37963 0.565881,0.0622 1.151482,0 1.727223,0 0.647713,0 1.310847,0.0823 1.943133,0 0.69192,-0.0901 1.322068,-0.30597 1.943128,-0.50617 2.73729,-0.88238 1.89954,-0.72267 4.10217,-1.77157 0.55855,-0.26599 1.1984,-0.47315 1.72722,-0.75925 0.41302,-0.22345 0.7035,-0.51438 1.07952,-0.75925 0.71065,-0.4628 1.08765,-0.62236 1.94312,-1.01233 0.77254,-0.35216 0.78538,-0.43716 1.72724,-0.50616 1.05415,-0.0772 1.21612,0.0456 2.15902,0.50616 2.57159,1.25602 0.0211,0.24653 2.59084,1.64504 0.52737,0.28702 1.16132,0.49865 1.72723,0.75925 0.44198,0.20353 0.80991,0.46671 1.29542,0.6327 0.39315,0.13442 0.87058,0.15732 1.29542,0.25308 0.51154,0.11532 0.97539,0.31232 1.5113,0.37963 0.4926,0.0619 1.00757,0 1.51134,0 0.4318,0 0.86361,0 1.29542,0 0.35984,0 0.71966,0 1.07951,0 0.35983,0 0.72667,0.0414 1.07952,0 1.95429,-0.22909 0.26746,-0.2118 1.94312,-0.63271 0.19845,-0.0499 0.4546,0.0566 0.64772,0 0.14393,-0.0422 0.11537,-0.17943 0.21588,-0.25308 0.19077,-0.13974 0.49944,-0.22319 0.64772,-0.37962 0.22105,-0.2332 0.29795,-0.50428 0.43181,-0.75925 0.15408,-0.2935 0.3706,-0.58081 0.43181,-0.88579 0.15305,-0.76244 -0.0424,-1.94 -0.43181,-2.65736 -0.45022,-0.82934 -1.71069,-2.10932 -2.59083,-2.7839 -0.37095,-0.28432 -0.84792,-0.51571 -1.29542,-0.75925 -0.56061,-0.30511 -1.08493,-0.6422 -1.72724,-0.88579 -0.59509,-0.22568 -1.28501,-0.35188 -1.94311,-0.50616 -3.25293,-0.76262 -1.42982,-0.32683 -4.74987,-0.75925 -0.51146,-0.0666 -0.992,-0.212497 -1.51132,-0.253082 -0.5707,-0.04461 -1.15296,0.02405 -1.72725,0 -0.43663,-0.01828 -0.86032,-0.09821 -1.29539,-0.126541 -0.35766,-0.02328 -0.7197,0 -1.07954,0 -0.54129,0 -0.78726,-0.08948 -1.0795,0.253082 -0.25324,0.296841 -0.40568,1.106631 0,1.391951 0.61905,0.4354 1.23223,0.46438 2.15904,0.50617 0.50228,0.0226 1.00754,0 1.5113,0 0.71968,0 1.43936,0 2.15904,0 0.71966,0 1.43935,0 2.15903,0 0.8636,0 1.73047,0.0439 2.59083,0 0.8016,-0.0408 1.57395,-0.20838 2.37495,-0.25309 0.71642,-0.04 1.43934,0 2.15903,0 0.71968,0 1.4426,-0.04 2.15902,0 1.48343,0.0828 2.93807,0.30918 4.31807,0.63271 0.44826,0.10509 0.84979,0.27079 1.29542,0.37962 0.42015,0.10261 0.92254,0.1001 1.29542,0.25308 0.37751,0.15489 0.53776,0.44173 0.8636,0.63271 3.92378,1.97119 -0.54225,-0.44468 2.37494,1.64503 0.2918,0.20904 0.70684,0.34731 1.07952,0.50617 1.41658,0.60382 1.02899,0.45411 2.59083,0.75924 2.32771,0.45476 0.36441,0.0928 2.15904,0.37963 0.50547,0.0808 0.99452,0.2026 1.51132,0.25308 1.04199,0.10178 3.07654,-0.1411 3.88625,-0.50616 0.52592,-0.23711 0.82626,-0.61081 1.29543,-0.88579 0.46918,-0.27498 1.04215,-0.48427 1.51133,-0.75925 0.39743,-0.23295 0.68204,-0.5263 1.0795,-0.75924 1.09748,-0.64324 2.42021,-1.30134 3.88626,-1.64504 0.27551,-0.0646 0.57574,-0.0844 0.86362,-0.12654 0.28786,-0.0422 0.56869,-0.10734 0.86361,-0.12654 0.35763,-0.0233 0.71967,0 1.07952,0 0.50377,0 1.00754,0 1.51131,0 1.00756,0 2.01509,0 3.02265,0 0.43181,0 0.8647,-0.018 1.29542,0 0.57875,0.0242 1.14871,0.10046 1.72722,0.12654 0.35877,0.0162 0.71968,0 1.07951,0 1.15149,0 2.30299,0 3.45446,0 2.37493,0 4.74987,0 7.12481,0"
       id="path4497-4"
       inkscape:connector-curvature="0" />
    <path
       style="fill:none;stroke:#000000;stroke-width:0.20920472;stroke-linecap:butt;stroke-linejoin:miter;stroke-miterlimit:4;stroke-dasharray:none;stroke-opacity:1"
       d="m 35.941632,102.12534 c 0.264309,0 0.52862,0 0.792929,0 0.02975,0 0.178123,-0.0101 0.198231,0 0.05572,0.0279 0.07644,0.1043 0.132155,0.13215 0.01971,0.01 0.0505,-0.0156 0.06608,0 0.0043,0.004 0.12395,0.252 0.132155,0.26431 0.01728,0.0259 0.05214,0.0382 0.06608,0.0661 0.03115,0.0623 0.04405,0.13216 0.06608,0.19824 0.02203,0.0661 0.04695,0.13126 0.06608,0.19823 0.02494,0.0873 0.03419,0.17927 0.06608,0.26431 0.03458,0.0922 0.105097,0.16959 0.132154,0.26431 0.01815,0.0635 -0.01081,0.13305 0,0.19823 -0.02295,0.13444 0.108897,0.21408 0.132156,0.33039 0.01296,0.0648 -0.01081,0.13305 0,0.19823 0.01141,0.0687 0.04694,0.13126 0.06608,0.19823 0.02494,0.0873 0.04113,0.17699 0.06608,0.26431 0.01914,0.067 0.05622,0.12928 0.06608,0.19823 0.03405,0.23834 -0.03405,0.22421 0,0.46254 0.01285,0.0899 0.05481,0.1742 0.06608,0.26431 0.01913,0.15299 0,0.30836 0,0.46254 0,0.26431 0,0.52862 0,0.79293 0,0.19824 0,0.39647 0,0.5947 0,0.0661 0,0.13215 0,0.19823 0,0.0441 0.01393,0.0904 0,0.13216 -0.0098,0.0295 -0.04738,0.0411 -0.06608,0.0661 -0.04765,0.0635 -0.09663,0.1272 -0.132154,0.19823 -0.09251,0.18502 -0.105728,0.40968 -0.198233,0.5947 -0.03552,0.071 -0.0913,0.13013 -0.132155,0.19823 -0.05287,0.0881 -0.113244,0.23583 -0.132154,0.33038 -0.0086,0.0432 0.0086,0.089 0,0.13216 -0.01366,0.0683 -0.04406,0.13215 -0.06608,0.19823 -0.02203,0.0661 -0.03492,0.13593 -0.06608,0.19823 -0.01393,0.0279 -0.05214,0.0382 -0.06608,0.0661 -0.189109,0.37822 0.04106,0.0417 -0.132156,0.33039 -0.04086,0.0681 -0.0913,0.13013 -0.132154,0.19823 -0.02534,0.0422 -0.03876,0.0912 -0.06608,0.13216 -0.01728,0.0259 -0.0488,0.0402 -0.06608,0.0661 -0.02732,0.041 -0.05413,0.0844 -0.06608,0.13215 -0.01069,0.0427 0.02443,0.0955 0,0.13216 -0.02732,0.041 -0.0881,0.044 -0.132155,0.0661 -0.04405,0.022 -0.08438,0.0541 -0.132154,0.0661 -0.438302,0 0.09345,-0.0312 -0.198233,0.0661 -0.04178,0.0139 -0.0881,0 -0.132153,0 -0.04406,0 -0.08811,0 -0.132156,0 -0.176207,0 -0.352413,0 -0.528619,0 -0.06608,0 -0.132155,0 -0.198232,0 -0.0881,0 -0.18333,0.0347 -0.264309,0 -0.08589,-0.0368 -0.132155,-0.13216 -0.198233,-0.19824 -0.06608,-0.0661 -0.132155,-0.13215 -0.198231,-0.19823 -0.06608,-0.0661 -0.132156,-0.13215 -0.198233,-0.19823 -0.02203,-0.022 -0.04016,-0.0488 -0.06608,-0.0661 -0.04098,-0.0273 -0.09733,-0.0312 -0.132155,-0.0661 -0.01558,-0.0156 0,-0.0441 0,-0.0661 0,-0.11014 0,-0.22026 0,-0.33039"
       id="path4503"
       inkscape:connector-curvature="0" />
    <path
       style="fill:none;stroke:#000000;stroke-width:0.19220959;stroke-linecap:butt;stroke-linejoin:miter;stroke-miterlimit:4;stroke-dasharray:none;stroke-opacity:1"
       d="m 41.227821,104.68195 c 0.08811,0 0.183329,0.0293 0.264309,0 0.08589,-0.0311 0.132156,-0.11156 0.198233,-0.16734 0.115624,-0.0976 0.191803,-0.21225 0.26431,-0.33466 0.02203,-0.0372 0.0505,-0.0721 0.06608,-0.11156 0.01276,-0.0323 0,-0.17477 0,-0.22311 0,-0.036 0.01575,-0.20981 0,-0.22311 -0.04925,-0.0416 -0.132155,-0.0372 -0.198233,-0.0558 -0.06608,-0.0186 -0.129279,-0.0475 -0.198231,-0.0558 -0.08722,-0.0105 -0.176207,0 -0.264309,0 -0.06608,0 -0.132156,0 -0.198233,0 -0.16754,0 -0.52255,-0.0317 -0.660773,0.0558 -0.0394,0.0249 -0.04074,0.0759 -0.06608,0.11156 -0.04086,0.0575 -0.100871,0.10572 -0.132153,0.16733 -0.03718,0.0733 -0.117677,0.44702 -0.132156,0.502 -0.0197,0.0748 -0.03999,0.14969 -0.06608,0.22311 -0.04002,0.11263 -0.104841,0.21936 -0.132155,0.33467 -0.01728,0.0729 0.01093,0.14931 0,0.22311 -0.01129,0.0761 -0.05324,0.14722 -0.06608,0.22311 -0.0093,0.0552 0.0209,0.11441 0,0.16733 -0.02511,0.0636 -0.0913,0.10985 -0.132155,0.16733 -0.02534,0.0357 -0.04165,0.0755 -0.06608,0.11156 -0.06373,0.0941 -0.13586,0.18412 -0.198233,0.27889 -0.0087,0.0132 -0.262301,0.44433 -0.264309,0.44622 -0.135845,0.12741 -0.318951,0.21345 -0.462541,0.33466 -0.09973,0.0842 -0.171439,0.1893 -0.264309,0.27889 -0.06154,0.0594 -0.138409,0.10673 -0.198232,0.16733 -0.06669,0.0676 -0.154459,0.23253 -0.26431,0.27889 -0.0394,0.0166 -0.09037,-0.0118 -0.132156,0 -0.02954,0.008 -0.03821,0.044 -0.06608,0.0558 -0.06229,0.0263 -0.133563,0.0339 -0.198233,0.0558 -0.04573,0.0154 -0.08437,0.0457 -0.132154,0.0558 -0.04274,0.009 -0.09276,-0.0166 -0.132156,0 -0.0197,0.008 0.01558,0.0426 0,0.0558 -0.03949,0.0333 -0.132154,-0.0603 -0.132154,0.0558 0,0.0186 0.04406,0 0.06608,0 0.0881,0 0.176207,0 0.264309,0 0.08811,0 0.176746,-0.008 0.26431,0 0.111629,0.0105 0.234082,0.007 0.330387,0.0558 0.133551,0.0676 0.21398,0.19155 0.330387,0.27889 0.08232,0.0618 0.180692,0.10683 0.264309,0.16733 0.197856,0.14316 0.194438,0.16253 0.330386,0.33467 0.04406,0.0558 0.076,0.11993 0.132155,0.16733 0.03483,0.0294 0.09732,0.0264 0.132156,0.0558 0.03482,0.0294 0.03652,0.0783 0.06608,0.11155 0.03738,0.0421 0.09477,0.0695 0.132156,0.11156 0.02954,0.0333 0.03653,0.0783 0.06608,0.11155 0.119656,0.13468 0.167831,0.11334 0.330386,0.22312 0.09729,0.0657 0.164633,0.16 0.26431,0.22311 0.0394,0.0249 0.08992,0.0344 0.132153,0.0558 0.445556,0.22566 -0.04319,0.0189 0.396466,0.16733 0.04573,0.0154 0.08386,0.0476 0.132154,0.0558 0.06479,0.0109 0.134127,-0.0135 0.198233,0 0.03022,0.006 0.03653,0.0475 0.06608,0.0558 0.03786,0.0106 0.268352,0 0.330386,0 0.01725,0 0.363244,0.009 0.396465,0 0.09345,-0.0263 0.176207,-0.0744 0.26431,-0.11156 0.04405,-0.0186 0.09733,-0.0264 0.132154,-0.0558 0.03483,-0.0294 0.03653,-0.0783 0.06608,-0.11155 0.03738,-0.0421 0.09323,-0.0705 0.132156,-0.11156 0.09922,-0.10469 0.176205,-0.22311 0.264309,-0.33466 0.08811,-0.11156 0.182591,-0.2197 0.264309,-0.33467 0.02534,-0.0356 0.03876,-0.077 0.06608,-0.11155 0.01728,-0.0219 0.0488,-0.0339 0.06608,-0.0558 0.02203,-0.0372 0.04406,-0.0744 0.06608,-0.11156 0,-0.0186 -0.0098,-0.0391 0,-0.0558 0.137499,-0.23213 -0.0046,0.0596 0.132155,-0.0558 0.01558,-0.0131 0.01558,-0.0426 0,-0.0558 -0.01558,-0.0131 -0.0505,-0.0131 -0.06608,0 -0.09973,0.0842 -0.169963,0.1904 -0.264309,0.27889 -0.166703,0.15635 -0.352413,0.29748 -0.528619,0.44622 -0.04405,0.0372 -0.09477,0.0695 -0.132156,0.11156 -0.145578,0.0281 -0.03492,0.11474 -0.06608,0.16733 -0.01393,0.0235 -0.05214,0.0323 -0.06608,0.0558 -0.0098,0.0166 0,0.0372 0,0.0558 0,0.17677 -0.04314,0.24247 0.132155,0.39044 0.03483,0.0294 0.09276,0.0308 0.132156,0.0558 0.09968,0.0631 0.164632,0.16001 0.264309,0.22311 0.03328,0.12289 0.135934,0.0295 0.198231,0.0558 0.02787,0.0118 0.03653,0.0475 0.06608,0.0558 0.163958,0.0461 0.13196,-0.0183 0.198231,-0.11155 0.267333,-0.37611 0.02237,0.0365 0.198233,-0.33467 0.01829,-0.0386 0.05642,-0.0708 0.06608,-0.11155 0.02591,-0.10939 -0.01869,-0.22424 0,-0.33467 0.01285,-0.0759 0.05115,-0.14749 0.06608,-0.22311 0.0073,-0.0367 -0.0086,-0.0751 0,-0.11156 0.08001,-0.33768 0.06608,-0.0231 0.06608,-0.27888 0,-0.0558 0,-0.11156 0,-0.16734 0,-0.0186 0.01558,-0.0426 0,-0.0558 -0.003,-0.003 -0.299231,0 -0.330388,0 -0.02203,0 -0.05622,0.0166 -0.06608,0 -0.0197,-0.0333 -0.04406,-0.11155 0,-0.11155 0.03303,0 -0.01651,0.13944 0,0.16733 0.07036,0.11879 0.228446,0.0255 0.264309,0.0558 0.01558,0.0131 -0.0197,0.0475 0,0.0558 0.0591,0.0249 0.132155,0 0.198231,0 0.154182,0 0.308362,0 0.462542,0 0.132155,0 0.264309,0 0.396464,0 0.04405,0 0.08811,0 0.132155,0 0.02203,0 0.04637,0.008 0.06608,0 0.02787,-0.0118 0.04406,-0.0372 0.06608,-0.0558 0.02203,-0.0186 0.0488,-0.0339 0.06608,-0.0558 0.02732,-0.0346 0.03876,-0.077 0.06608,-0.11155 0.03455,-0.0438 0.104295,-0.0645 0.132155,-0.11156 0.01969,-0.0333 -0.0197,-0.0783 0,-0.11155 0.01393,-0.0235 0.05214,-0.0323 0.06608,-0.0558 0.0098,-0.0166 -0.0098,-0.0391 0,-0.0558 0.01393,-0.0235 0.05214,-0.0322 0.06608,-0.0558 0.0098,-0.0166 -0.01558,-0.0426 0,-0.0558 0.01558,-0.0131 0.05622,0.0166 0.06608,0 0.0197,-0.0333 -0.01068,-0.0755 0,-0.11156 0.0119,-0.0403 0.04406,-0.0744 0.06608,-0.11155 0.02203,-0.0372 0.04405,-0.0744 0.06608,-0.11156 0.02203,-0.0372 0.04406,-0.0744 0.06608,-0.11155 0.02203,0 0.0505,0.0131 0.06608,0 0.03115,-0.0263 -0.04406,-0.11156 0,-0.11156 0.03115,0 0.05852,0.0303 0.06608,0.0558 0.01603,0.0541 0,0.11155 0,0.16733 0,0.11156 0,0.22311 0,0.33467 0,0.0558 -0.0209,0.11442 0,0.16733 0.0098,0.0249 0.05214,0.0322 0.06608,0.0558 0.0098,0.0166 -0.0098,0.0391 0,0.0558 0.02787,0.047 0.112455,0.0617 0.132154,0.11155 0.01393,0.0353 -0.01969,0.0783 0,0.11156 0.0098,0.0166 0.04637,-0.008 0.06608,0 0.02787,0.0118 0.04405,0.0372 0.06608,0.0558 0.02203,0.0186 0.05214,0.0322 0.06608,0.0558 0.01971,0.0333 -0.03115,0.0853 0,0.11156 0.01558,0.0131 0.04637,-0.008 0.06608,0 0.01265,0.005 0.257985,0.21243 0.264309,0.22311 0.0098,0.0166 -0.0098,0.0391 0,0.0558 0.01393,0.0235 0.0488,0.0339 0.06608,0.0558 0.07748,0.0981 0.07843,0.1655 0.132156,0.27889 0.01829,0.0386 0.0505,0.0721 0.06608,0.11155 0.0209,0.0529 -0.01603,0.11322 0,0.16733 0.0119,0.0403 0.0505,0.0721 0.06608,0.11156 0.0081,0.0206 0.0085,0.32024 0,0.33466 -0.01393,0.0235 -0.05214,0.0322 -0.06608,0.0558 -0.0098,0.0166 0.0098,0.0391 0,0.0558 -0.06977,0.1178 -0.188186,0.0236 -0.264309,0.0558 -0.02787,0.0118 -0.04406,0.0372 -0.06608,0.0558 -0.04405,0 -0.09037,-0.0118 -0.132155,0 -0.02954,0.008 -0.04016,0.0412 -0.06608,0.0558 -0.04098,0.0231 -0.08543,0.0426 -0.132156,0.0558 -0.04178,0.0118 -0.09037,-0.0118 -0.132153,0 -0.04673,0.0132 -0.08543,0.0426 -0.132155,0.0558 -0.03576,0.01 -0.2418,0 -0.264311,0 -0.02203,0 -0.04405,0 -0.06608,0 -0.02203,0 -0.04637,0.008 -0.06608,0 -0.02787,-0.0118 -0.04405,-0.0372 -0.06608,-0.0558 -0.0756,-0.0638 -0.09215,-0.066 -0.132155,-0.16733 -0.0069,-0.0176 0.0098,-0.0391 0,-0.0558 -0.01393,-0.0235 -0.05214,-0.0323 -0.06608,-0.0558 -0.0197,-0.0333 0.03115,-0.0853 0,-0.11155 -0.01558,-0.0131 -0.0505,0.0131 -0.06608,0 -0.01558,-0.0131 0,-0.0372 0,-0.0558 0,-0.0186 0,-0.0372 0,-0.0558 0,-0.0575 -0.0097,-0.37398 0,-0.39044 0.01393,-0.0235 0.05214,-0.0323 0.06608,-0.0558 0.0098,-0.0166 -0.01558,-0.0426 0,-0.0558 0.01558,-0.0132 0.04405,0 0.06608,0 0.02203,0 0.04405,0 0.06608,0 0.01603,0 0.196107,-0.002 0.198231,0 0.03304,0.0279 -0.03304,0.13944 0,0.16733 0.01558,0.0131 0.04405,0 0.06608,0"
       id="path4505"
       inkscape:connector-curvature="0" />
    <path
       style="fill:none;stroke:#000000;stroke-width:0.20920472;stroke-linecap:butt;stroke-linejoin:miter;stroke-miterlimit:4;stroke-dasharray:none;stroke-opacity:1"
       d="m 45.060309,105.89175 c 0.200062,0.1346 0.221207,0.13215 0.396463,0.13215 0.02203,0 0.05622,0.0197 0.06608,0 0.02954,-0.0591 -0.02954,-0.13913 0,-0.19823 0.01393,-0.0279 0.04405,-0.0441 0.06608,-0.0661 0.02203,-0.022 0.03821,-0.0521 0.06608,-0.0661 0.0197,-0.01 0.0505,0.0156 0.06608,0 0.01558,-0.0156 0,-0.044 0,-0.0661 0,-0.022 0,-0.0441 0,-0.0661"
       id="path4507"
       inkscape:connector-curvature="0" />
    <path
       style="fill:none;stroke:#000000;stroke-width:0.20920472;stroke-linecap:butt;stroke-linejoin:miter;stroke-miterlimit:4;stroke-dasharray:none;stroke-opacity:1"
       d="m 46.514011,110.31893 c 0.08811,0 0.182508,0.0327 0.264309,0 0.04573,-0.0183 0.03653,-0.0927 0.06608,-0.13215 0.269422,-0.35923 -0.02535,0.0864 0.330387,-0.19823 0.06201,-0.0496 0.06862,-0.15059 0.132155,-0.19824 0.03524,-0.0264 0.09275,0.0197 0.132154,0 0.08358,-0.0418 0.132155,-0.13215 0.198232,-0.19823 0.176206,-0.17621 0.352413,-0.35241 0.528619,-0.52862 0.155615,-0.15561 0.121997,-0.13927 0.330386,-0.26431 0.04223,-0.0253 0.09733,-0.0312 0.132156,-0.0661 0.03483,-0.0348 0.03124,-0.0973 0.06608,-0.13215 0.03483,-0.0348 0.09732,-0.0312 0.132156,-0.0661 0.01558,-0.0156 0,-0.044 0,-0.0661 0.02203,-0.044 0.03124,-0.0973 0.06608,-0.13216 0.03483,-0.0348 0.08543,-0.0505 0.132155,-0.0661 0.0209,-0.007 0.05622,0.0197 0.06608,0 0.01971,-0.0394 -0.01969,-0.0928 0,-0.13215 0.0098,-0.0197 0.04518,0.007 0.06608,0 0.04673,-0.0156 0.09732,-0.0312 0.132155,-0.0661 0.01558,-0.0156 -0.01558,-0.0505 0,-0.0661 0.03115,-0.0312 0.09276,0.0197 0.132155,0 0.02787,-0.0139 0.03821,-0.0521 0.06608,-0.0661 0.01971,-0.01 0.04637,0.01 0.06608,0 0.02787,-0.0139 0.03652,-0.0562 0.06608,-0.0661 0.04178,-0.0139 0.08811,0 0.132155,0 0.02203,0 0.04637,0.01 0.06608,0 0.02787,-0.0139 0.03821,-0.0521 0.06608,-0.0661 0.0197,-0.01 0.04405,0 0.06608,0 0.02203,0 0.08811,0 0.06608,0 -0.242283,0 -0.484568,0 -0.726851,0 -0.05905,0 -0.30933,-0.0106 -0.330387,0 -0.101199,0.0506 -0.05167,0.11775 -0.132155,0.19823 -0.03483,0.0348 -0.106809,0.0238 -0.132155,0.0661 -0.04673,0.0779 -0.04113,0.17699 -0.06608,0.26431 -0.0017,0.006 -0.131941,0.39497 -0.132156,0.39647 -0.01246,0.0872 0,0.1762 0,0.26431 0,0.0661 0,0.13215 0,0.19823 0,0.13215 0,0.26431 0,0.39646 0,0.0298 -0.01008,0.17812 0,0.19823 0.01393,0.0279 0.04405,0.044 0.06608,0.0661 0.0756,0.0756 0.07822,0.0922 0.198232,0.13216 0.04178,0.0139 0.08811,0 0.132155,0 0.110124,0 0.220258,0 0.330387,0 0.02203,0 0.04405,0 0.06608,0 0.02203,0 0.0505,0.0156 0.06608,0 0.0102,-0.0102 -0.0086,-0.17252 0,-0.19823 0.01558,-0.0467 0.0505,-0.0854 0.06608,-0.13216 0.0069,-0.0209 -0.0069,-0.0452 0,-0.0661 0.03115,-0.0935 0.112831,-0.16772 0.132153,-0.26431 0.0216,-0.10799 0,-0.22026 0,-0.33039 0,-0.19823 0,-0.39646 0,-0.59469 0,-0.13216 0,-0.26431 0,-0.39647 0,-0.022 -0.02203,-0.0661 0,-0.0661 0.02203,0 0,0.0441 0,0.0661 0,0.044 0,0.0881 0,0.13216 0,0.0298 -0.01008,0.17812 0,0.19823 0.01393,0.0279 0.05214,0.0382 0.06608,0.0661 0.0098,0.0197 0,0.044 0,0.0661 0,0.022 0,0.0441 0,0.0661 0,0.022 0,0.044 0,0.0661 0,0.022 -0.01558,0.0505 0,0.0661 0.01558,0.0156 0.0505,-0.0156 0.06608,0 0.03115,0.0311 -0.03115,0.101 0,0.13215 0.01558,0.0156 0.05622,-0.0197 0.06608,0 0.02076,0.0415 -0.02076,0.22278 0,0.26431 0.01393,0.0279 0.05622,0.0365 0.06608,0.0661 0.0234,0.0702 -0.0234,0.1941 0,0.26431 0.01558,0.0467 0.05413,0.0844 0.06608,0.13216 0.01069,0.0427 -0.01971,0.0928 0,0.13215 0.0098,0.0197 0.0505,-0.0156 0.06608,0 0.01558,0.0156 -0.0098,0.0464 0,0.0661 0.01393,0.0279 0.05214,0.0382 0.06608,0.0661 0.02644,0.0529 -0.02643,0.14537 0,0.19824 0.01393,0.0279 0.05214,0.0382 0.06608,0.0661 0.0098,0.0197 -0.01558,0.0505 0,0.0661 0.03115,0.0312 0.101004,-0.0311 0.132156,0 0.01557,0.0156 -0.01558,0.0505 0,0.0661 0.003,0.003 0.29923,0 0.330385,0 0.03116,0 0.327392,0.003 0.330386,0 0.121417,-0.12142 0.04573,-0.0965 0.06608,-0.19823 0.214521,-0.85809 -0.03027,0.2119 0.06608,-0.46255 0.01285,-0.0899 0.04405,-0.1762 0.06608,-0.26431 0.04406,-0.1762 0.102292,-0.34946 0.132155,-0.52862 0.01081,-0.0652 0,-0.13215 0,-0.19823 0,-0.0881 0,-0.1762 0,-0.26431 0,-0.022 -0.02203,-0.0661 0,-0.0661 0.02203,0 0,0.0881 0,0.0661 0,-0.044 0.01971,-0.0928 0,-0.13215 -0.0197,-0.0394 -0.101005,0.0312 -0.132155,0 -0.01558,-0.0156 -0.01971,-0.0562 0,-0.0661 0.0591,-0.0295 0.132155,0 0.198231,0 0.176207,0 0.352414,0 0.52862,0 0.0881,0 0.176206,0 0.26431,0 0.02203,0 0.06608,-0.022 0.06608,0 0,0.022 -0.06608,-0.022 -0.06608,0 0,0.0311 0.05622,0.0365 0.06608,0.0661 0.01393,0.0418 0,0.0881 0,0.13215 0,0.0661 0.01081,0.13306 0,0.19824 -0.01141,0.0687 -0.05242,0.12993 -0.06608,0.19823 -0.0086,0.0432 0.01393,0.0904 0,0.13215 -0.0098,0.0295 -0.05214,0.0382 -0.06608,0.0661 -0.01008,0.0201 0,0.16847 0,0.19823 0,0.13216 0,0.26431 0,0.39647 0,0.0243 -0.0027,0.26165 0,0.26431 0.03115,0.0311 0.101004,-0.0311 0.132153,0 0.01558,0.0156 -0.01558,0.0505 0,0.0661 0.01558,0.0156 0.0505,-0.0156 0.06608,0 0.01558,0.0156 -0.01558,0.0505 0,0.0661 0.01558,0.0156 0.04405,0 0.06608,0 0.02203,0 0.04406,0 0.06608,0 0.220259,0 0.440517,0 0.660774,0 0.02203,0 0.04406,0 0.06608,0 0.02203,0 0.0505,0.0156 0.06608,0 0.01558,-0.0156 -0.01558,-0.0505 0,-0.0661 0.01558,-0.0156 0.05622,0.0197 0.06608,0 0.0394,-0.0788 -0.0394,-0.18551 0,-0.26431 0.0098,-0.0197 0.05911,0.0209 0.06608,0 0.02088,-0.0627 -0.01296,-0.13344 0,-0.19823 0.01932,-0.0966 0.108266,-0.16875 0.132154,-0.26431 0.01069,-0.0427 -0.01069,-0.0894 0,-0.13216 0.02388,-0.0956 0.108266,-0.16875 0.132156,-0.26431 0.003,-0.012 -0.0041,-0.32627 0,-0.33039 0.01558,-0.0156 0.0505,0.0156 0.06608,0 0.0022,-0.002 0,-0.1822 0,-0.19823"
       id="path4511"
       inkscape:connector-curvature="0" />
    <path
       style="fill:none;stroke:#000000;stroke-width:0.20920472;stroke-linecap:butt;stroke-linejoin:miter;stroke-miterlimit:4;stroke-dasharray:none;stroke-opacity:1"
       d="m 53.848599,107.08114 c 0,0.15418 0,0.30836 0,0.46254 0,0.022 -0.01558,0.0505 0,0.0661 0.01558,0.0156 0.04405,0 0.06608,0 0.02203,0 0.0505,0.0156 0.06608,0 0.03303,-0.033 -0.03304,-0.16519 0,-0.19823 0.02203,-0.022 0.132154,0.044 0.06608,-0.0661 -0.05666,-0.0944 -0.132154,-0.17621 -0.198231,-0.26431 z"
       id="path4513"
       inkscape:connector-curvature="0" />
    <path
       style="fill:none;stroke:#000000;stroke-width:0.20920472;stroke-linecap:butt;stroke-linejoin:miter;stroke-miterlimit:4;stroke-dasharray:none;stroke-opacity:1"
       d="m 53.584289,108.27053 c 0.02203,0.0881 0.02546,0.18309 0.06608,0.26431 0.0098,0.0197 0.0505,-0.0156 0.06608,0 0.01808,0.0181 -0.01792,0.22847 0,0.26431 0.01393,0.0279 0.05214,0.0382 0.06608,0.0661 0.0098,0.0197 -0.01558,0.0505 0,0.0661 0.08811,0.0881 0.06608,-0.11012 0.06608,0.0661 0,0.022 0,0.0441 0,0.0661 0,0.022 -0.0098,0.0464 0,0.0661 0.01393,0.0279 0.05214,0.0382 0.06608,0.0661 0.01792,0.0359 -0.01808,0.24623 0,0.26431 0.136717,0.13672 -0.0053,-0.20892 0.132155,0.0661 0,0.17621 -0.02203,-0.022 0.06608,0.0661 0.01558,0.0156 -0.01558,0.0505 0,0.0661 0.01558,0.0156 0.0505,-0.0156 0.06608,0 0.01558,0.0156 -0.01558,0.0505 0,0.0661 0.01558,0.0156 0.0505,-0.0156 0.06608,0 0.01558,0.0156 -0.01558,0.0505 0,0.0661 0.03115,0.0312 0.101005,-0.0311 0.132155,0 0.01558,0.0156 -0.01558,0.0505 0,0.0661 0.003,0.003 0.299232,0 0.330387,0 0.03116,0 0.327392,0.003 0.330386,0 0.166907,-0.1669 0.02539,-0.0762 0.06608,-0.19823 0.159542,-0.47863 -0.01905,0.10417 0.132154,-0.19823 0.01971,-0.0394 -0.01971,-0.0928 0,-0.13216 0.01393,-0.0279 0.05214,-0.0382 0.06608,-0.0661 0.02085,-0.0417 -0.02085,-0.2887 0,-0.33038 0.02787,-0.0557 0.104295,-0.0764 0.132155,-0.13216 0.01792,-0.0359 -0.01808,-0.24623 0,-0.26431 0.01558,-0.0156 0.0505,0.0156 0.06608,0 0.02046,-0.0205 -0.02046,-0.30992 0,-0.33039 0.01558,-0.0156 0.0505,0.0156 0.06608,0 0.03115,-0.0312 -0.03116,-0.101 0,-0.13215 0.01558,-0.0156 0.0505,0.0156 0.06608,0 0.0159,-0.0159 -0.01591,-0.24841 0,-0.26431 0.01558,-0.0156 0.0505,0.0156 0.06608,0 0.03115,-0.0312 -0.04405,-0.13215 0,-0.13215 0.02203,0 0,0.044 0,0.0661 0,0.022 0,0.0441 0,0.0661 0,0.13215 0,0.2643 0,0.39646 0,0.022 -0.01558,0.0505 0,0.0661 0.01558,0.0156 0.0505,-0.0156 0.06608,0 0.01558,0.0156 -0.01558,0.0505 0,0.0661 0.01558,0.0156 0.04405,0 0.06608,0 0,0.022 -0.01558,0.0505 0,0.0661 0.03303,0.033 0.165194,-0.033 0.198233,0 0.01558,0.0156 -0.01558,0.0505 0,0.0661 0.0159,0.0159 0.248409,-0.0159 0.264309,0 0.01558,0.0156 -0.01558,0.0505 0,0.0661 0.01558,0.0156 0.0505,-0.0156 0.06608,0 0.0159,0.0159 -0.0159,0.24841 0,0.26431 0.01558,0.0156 0.0505,-0.0156 0.06608,0 0.03303,0.033 -0.03303,0.16519 0,0.19823 0.01558,0.0156 0.0505,-0.0156 0.06608,0 0.01558,0.0156 0,0.0441 0,0.0661 0,0.022 0,0.0441 0,0.0661 0,0.17621 0,0.35241 0,0.52862 0,0.0298 0.01008,0.17812 0,0.19823 -0.01393,0.0279 -0.03821,0.0521 -0.06608,0.0661 -0.01971,0.01 -0.04405,0 -0.06608,0 -0.02203,0 -0.04405,0 -0.06608,0 -0.132155,0 -0.264309,0 -0.396464,0 -0.02203,0 -0.04405,0 -0.06608,0 -0.02203,0 -0.0505,0.0156 -0.06608,0 -0.01558,-0.0156 0,-0.0441 0,-0.0661 0,-0.0881 0,-0.1762 0,-0.26431 0,-0.022 -0.02203,-0.0661 0,-0.0661 0.02203,0 0,0.0441 0,0.0661"
       id="path4515"
       inkscape:connector-curvature="0" />
    <path
       style="fill:none;stroke:#000000;stroke-width:0.20920472;stroke-linecap:butt;stroke-linejoin:miter;stroke-miterlimit:4;stroke-dasharray:none;stroke-opacity:1"
       d="m 56.425616,109.98855 c 0.410563,-0.27403 0.111496,-0.0227 0.46254,-0.19824 0.07102,-0.0355 0.130136,-0.0913 0.198233,-0.13215 0.04223,-0.0253 0.09276,-0.0365 0.132156,-0.0661 0.04983,-0.0374 0.08351,-0.0932 0.132153,-0.13216 0.124026,-0.0992 0.272439,-0.16509 0.396464,-0.26431 0.04864,-0.0389 0.08351,-0.0932 0.132155,-0.13215 0.162554,-0.13004 0.210728,-0.10477 0.330388,-0.26431 0.156426,-0.20857 -0.04965,-0.0825 0.198231,-0.33039 0.05615,-0.0562 0.137224,-0.0813 0.198232,-0.13215 0.07179,-0.0598 0.132156,-0.13216 0.198234,-0.19823 0.06608,-0.0661 0.138407,-0.12645 0.198231,-0.19824 0.05084,-0.061 0.09129,-0.13013 0.132155,-0.19823 0.02534,-0.0422 0.0251,-0.10483 0.06608,-0.13215 0.03666,-0.0244 0.09276,0.0197 0.132156,0 0.0197,-0.01 -0.0098,-0.0464 0,-0.0661 0.01393,-0.0279 0.04405,-0.0441 0.06608,-0.0661 0.02203,-0.022 0.04405,-0.044 0.06608,-0.0661 0.02203,-0.022 0.05622,-0.0365 0.06608,-0.0661 0.01393,-0.0418 -0.01069,-0.0894 0,-0.13216 0.0119,-0.0478 0.05413,-0.0844 0.06608,-0.13215 0.01069,-0.0427 -0.0197,-0.0928 0,-0.13216 0.0098,-0.0197 0.0505,0.0156 0.06608,0 0.01558,-0.0156 0,-0.044 0,-0.0661 0,-0.044 0,-0.0881 0,-0.13215 0,-0.13216 0,-0.26431 0,-0.39647 0,-0.0441 0.01069,-0.0894 0,-0.13215 -0.0119,-0.0478 -0.0505,-0.0854 -0.06608,-0.13216 -0.01393,-0.0418 0.03115,-0.101 0,-0.13215 -0.01558,-0.0156 -0.05622,0.0197 -0.06608,0 -0.0394,-0.0788 0.0394,-0.18551 0,-0.26431 -0.0098,-0.0197 -0.0505,0.0156 -0.06608,0 -0.01557,-0.0156 0.0098,-0.0464 0,-0.0661 -0.01393,-0.0279 -0.05214,-0.0382 -0.06608,-0.0661 -0.0098,-0.0197 0.01558,-0.0505 0,-0.0661 -0.01558,-0.0156 -0.04406,0 -0.06608,0 -0.02203,0 -0.04405,0 -0.06608,0 -0.02203,0 -0.04405,0 -0.06608,0 -0.02203,0 -0.04775,-0.0122 -0.06608,0 -0.207365,0.13824 -0.127518,0.20326 -0.198232,0.46254 -0.359553,1.07866 0.0687,-0.27482 -0.198233,0.79293 -0.0119,0.0478 -0.05642,0.0839 -0.06608,0.13215 -0.01395,0.0698 0,0.36698 0,0.46255 0,0.022 0,0.0441 0,0.0661 0,0.022 0.01558,0.0505 0,0.0661 -0.01558,0.0156 -0.0505,-0.0156 -0.06608,0 -0.01557,0.0156 0,0.044 0,0.0661 0,0.0441 0,0.0881 0,0.13215 0,0.22026 0,0.44052 0,0.66077 0,0.11013 0,0.22026 0,0.33039 0,0.19823 0,0.39646 0,0.5947 0,0.0881 0,0.1762 0,0.26431 0,0.022 0.02203,0.0661 0,0.0661 -0.02203,0 0,-0.0441 0,-0.0661 0,-0.11013 0,-0.22026 0,-0.33039 0,-0.19823 0,-0.39646 0,-0.5947 0,-0.0261 -0.01411,-0.30216 0,-0.33038 0.01393,-0.0279 0.04405,-0.044 0.06608,-0.0661 0.02203,-0.022 0.03821,-0.0521 0.06608,-0.0661 0.0197,-0.01 0.0505,0.0156 0.06608,0 0.136715,-0.13672 -0.208922,0.005 0.06608,-0.13216 0.0197,-0.01 0.04637,0.01 0.06608,0 0.02787,-0.0139 0.03821,-0.0521 0.06608,-0.0661 0.04154,-0.0208 0.222777,0.0208 0.26431,0 0.02787,-0.0139 0.03821,-0.0521 0.06608,-0.0661 0.01738,-0.009 0.229756,0 0.264309,0 0.07238,0 0.260974,-0.007 0.26431,0 0.02954,0.0591 0,0.13216 0,0.19823 0,0.0157 0.0074,0.2495 0,0.26431 -0.01393,0.0279 -0.05214,0.0382 -0.06608,0.0661 -0.0098,0.0197 0.01558,0.0505 0,0.0661 -0.0042,0.004 -0.252001,0.12395 -0.264309,0.13216 -0.02591,0.0173 -0.04016,0.0488 -0.06608,0.0661 -0.04098,0.0273 -0.08811,0.044 -0.132154,0.0661 -0.04406,0.022 -0.08543,0.0505 -0.132155,0.0661 -0.02089,0.007 -0.04637,-0.01 -0.06608,0 -0.02787,0.0139 -0.03821,0.0521 -0.06608,0.0661 -0.01738,0.009 -0.229757,0 -0.264309,0 -0.02203,0 -0.0505,0.0156 -0.06608,0 -0.01558,-0.0156 0,-0.0441 0,-0.0661 0,-0.022 -0.0098,-0.0464 0,-0.0661 0.04082,-0.0816 0.0638,-0.0661 0.132155,-0.0661 0.06835,0 0.09133,-0.0156 0.132154,0.0661 0.0098,0.0197 -0.0069,0.0452 0,0.0661 0.03116,0.0935 0.101005,0.17086 0.132155,0.26431 0.01983,0.0595 -0.01982,0.13876 0,0.19823 0.06875,0.20625 0.04405,-0.022 0.132156,0.0661 0.136715,0.13672 -0.208921,-0.005 0.06608,0.13216 0.0239,0.0119 0.284428,0 0.330388,0 0.06836,0 0.412189,0.0126 0.462541,0 0.176474,-0.0441 0.261161,-0.22891 0.396464,-0.33039 0.208568,-0.15643 0.0825,0.0496 0.330388,-0.19823 0.01557,-0.0156 -0.01558,-0.0505 0,-0.0661 0.01557,-0.0156 0.04405,0 0.06608,0 0.04405,0 0.09276,0.0197 0.132156,0 0.0394,-0.0197 -0.03115,-0.10101 0,-0.13216 0.03303,-0.033 0.165193,0.033 0.198231,0 0.01558,-0.0156 -0.01558,-0.0505 0,-0.0661 0.01558,-0.0156 0.04637,0.01 0.06608,0 0.02787,-0.0139 0.03821,-0.0521 0.06608,-0.0661 0.01971,-0.01 0.04637,0.01 0.06608,0 0.02787,-0.0139 0.03821,-0.0521 0.06608,-0.0661 0.0239,-0.0119 0.284427,0 0.330387,0 0.04405,0 0.08811,0 0.132154,0 0.02203,0 0.06608,-0.022 0.06608,0 0,0.022 -0.04405,0 -0.06608,0 -0.02203,0 -0.04405,0 -0.06608,0 -0.220259,0 -0.440516,0 -0.660775,0 -0.02203,0 -0.04405,0 -0.06608,0 -0.02203,0 -0.0505,-0.0156 -0.06608,0 -0.01558,0.0156 0.0098,0.0464 0,0.0661 -0.01393,0.0279 -0.04405,0.0441 -0.06608,0.0661 -0.02203,0 -0.05622,-0.0197 -0.06608,0 -0.0197,0.0394 0.0086,0.089 0,0.13216 -0.01366,0.0683 -0.05241,0.12993 -0.06608,0.19823 -0.0086,0.0432 0.0086,0.089 0,0.13216 -0.01366,0.0683 -0.05463,0.12952 -0.06608,0.19823 -0.01081,0.0652 0,0.13215 0,0.19823 0,0.0661 0,0.13215 0,0.19823 0,0.22026 0,0.44052 0,0.66077 0,0.022 0,0.0441 0,0.0661 0,0.022 -0.01558,0.0505 0,0.0661 0.01557,0.0156 0.04405,0 0.06608,0 0.02203,0 0.04405,0 0.06608,0 0.05537,0 0.302303,0.014 0.330387,0 0.237647,-0.11881 0.04843,-0.1145 0.198232,-0.2643 0.03482,-0.0348 0.09732,-0.0312 0.132156,-0.0661 0.01558,-0.0156 0,-0.044 0,-0.0661 0,-0.0441 -0.0197,-0.0928 0,-0.13216 0.0098,-0.0197 0.05622,0.0197 0.06608,0 0.01971,-0.0394 0,-0.0881 0,-0.13215 0,-0.022 -0.01558,-0.0505 0,-0.0661 0.01558,-0.0156 0.05622,0.0197 0.06608,0 0.01971,-0.0394 0,-0.0881 0,-0.13216 0,-0.044 0,-0.0881 0,-0.13215 0,-0.26431 0,-0.52862 0,-0.79293 0,-0.022 -0.02203,-0.0661 0,-0.0661 0.02203,0 0,0.0441 0,0.0661 0,0.044 0,0.0881 0,0.13215 0,0.11013 0,0.22026 0,0.33039 0,0.28634 0,0.57267 0,0.85901 0,0.0807 -0.02565,0.15237 0.06608,0.19823 0.0239,0.0119 0.284427,0 0.330387,0 0.110124,0 0.220257,0 0.330386,0 0.02203,0 0.04406,0 0.06608,0 0.02203,0 0.04637,0.01 0.06608,0 0.133639,-0.0668 0.02119,-0.15335 0.06608,-0.19823 0.01558,-0.0156 0.04637,0.01 0.06608,0 0.02787,-0.0139 0.04405,-0.044 0.06608,-0.0661 0.02203,-0.022 0.05214,-0.0382 0.06608,-0.0661 0.0098,-0.0197 -0.0098,-0.0464 0,-0.0661 0.02787,-0.0557 0.104295,-0.0764 0.132153,-0.13216 0.0098,-0.0197 -0.01557,-0.0505 0,-0.0661 0.01558,-0.0156 0.0505,0.0156 0.06608,0 0.01351,-0.0135 -0.0131,-0.17203 0,-0.19823 0.01393,-0.0279 0.05214,-0.0382 0.06608,-0.0661 0.0098,-0.0197 -0.0098,-0.0464 0,-0.0661 0.01393,-0.0279 0.05214,-0.0382 0.06608,-0.0661 0.0098,-0.0197 0,-0.0441 0,-0.0661 0,-0.11012 0,-0.22026 0,-0.33039 0,-0.022 0,-0.0441 0,-0.0661 0,-0.022 -0.0098,-0.0464 0,-0.0661 0.01393,-0.0279 0.05214,-0.0382 0.06608,-0.0661 0.126053,-0.2521 0.02901,-0.13694 0.06608,-0.39646 0.01285,-0.0899 0.04827,-0.17526 0.06608,-0.26431 0.01871,-0.0936 -0.0243,-0.32356 0,-0.39646 0.0098,-0.0295 0.05622,-0.0365 0.06608,-0.0661 0.01824,-0.0547 -0.02101,-0.28837 0,-0.33039 0.01393,-0.0279 0.05214,-0.0382 0.06608,-0.0661 0.0087,-0.0174 0,-0.22976 0,-0.26431"
       id="path4517"
       inkscape:connector-curvature="0" />
    <path
       style="fill:none;stroke:#000000;stroke-width:0.20920472;stroke-linecap:butt;stroke-linejoin:miter;stroke-miterlimit:4;stroke-dasharray:none;stroke-opacity:1"
       d="m 61.910037,107.08114 c 0.09003,-0.22409 0.183655,-0.31581 0.330386,-0.46254 0.02203,-0.022 0.05214,-0.0382 0.06608,-0.0661 0.0098,-0.0197 -0.0098,-0.0464 0,-0.0661 0.01393,-0.0279 0.05214,-0.0382 0.06608,-0.0661 0.0098,-0.0197 -0.01558,-0.0505 0,-0.0661 0.03115,-0.0311 0.101005,0.0311 0.132155,0 0.01351,-0.0135 -0.0131,-0.17203 0,-0.19823 0.137499,-0.275 -0.0046,0.0707 0.132155,-0.0661 0.03115,-0.0311 -0.03115,-0.10101 0,-0.13216 0.01557,-0.0156 0.0505,0.0156 0.06608,0 0.03115,-0.0311 -0.04405,-0.13215 0,-0.13215 0.05767,0 -0.138791,0.34366 0.06608,-0.0661"
       id="path4523"
       inkscape:connector-curvature="0" />
  </g>
</svg>
